<svg xmlns="http://www.w3.org/2000/svg" xmlns:xlink="http://www.w3.org/1999/xlink" xmlns:ev="http://www.w3.org/2001/xml-events" version="1.1" width="160px" height="36px" baseProfile="full">
<g>
  <path fill-opacity="0.5" d="M85.559,13.858c-0.022-2.604,2.125-3.856,2.227-3.916c-1.21-1.771-3.096-2.014-3.77-2.042   c-1.602-0.162-3.125,0.944-3.938,0.944c-0.813,0-2.067-0.921-3.397-0.896c-1.748,0.024-3.357,1.016-4.257,2.579   c-1.815,3.148-0.464,7.813,1.304,10.369c0.864,1.25,1.895,2.655,3.249,2.604c1.305-0.051,1.797-0.843,3.374-0.843   c1.574,0,2.018,0.843,3.396,0.817c1.401-0.025,2.292-1.275,3.149-2.529c0.992-1.45,1.396-2.854,1.424-2.927   C88.289,18.009,85.586,16.973,85.559,13.858z"/>
  <path fill-opacity="0.5" d="M82.967,6.21c0.719-0.871,1.204-2.082,1.07-3.287c-1.035,0.042-2.288,0.69-3.032,1.561   c-0.666,0.77-1.249,2.003-1.091,3.184C81.068,7.756,82.249,7.08,82.967,6.21z"/>
</g>
<g>

    <linearGradient id="SVGID_1_" gradientUnits="userSpaceOnUse" x1="541.9414" y1="701.8838" x2="541.9414" y2="717.501" gradientTransform="matrix(1 0 0 1 -462 -693)">
    <stop offset="0" style="stop-color:#F3F4F5"/>
    <stop offset="0.3145" style="stop-color:#E6E7E8"/>
    <stop offset="0.9005" style="stop-color:#C5C4C4"/>
    <stop offset="0.9939" style="stop-color:#BFBEBE"/>
  </linearGradient>
  <path fill="url(#SVGID_1_)" d="M85.559,14.858c-0.022-2.604,2.125-3.856,2.227-3.916c-1.21-1.771-3.096-2.014-3.77-2.042   c-1.602-0.162-3.125,0.944-3.938,0.944c-0.813,0-2.067-0.921-3.397-0.896c-1.748,0.024-3.357,1.016-4.257,2.579   c-1.815,3.148-0.464,7.813,1.304,10.369c0.864,1.25,1.895,2.655,3.249,2.604c1.305-0.051,1.797-0.843,3.374-0.843   c1.574,0,2.018,0.843,3.396,0.817c1.401-0.025,2.292-1.275,3.149-2.529c0.992-1.45,1.396-2.854,1.424-2.927   C88.289,19.009,85.586,17.973,85.559,14.858z"/>
  <path fill="#F6F7F7" d="M82.967,7.21c0.719-0.871,1.204-2.082,1.07-3.287c-1.035,0.042-2.288,0.69-3.032,1.561   c-0.666,0.77-1.249,2.003-1.091,3.184C81.068,8.756,82.249,8.08,82.967,7.21z"/>
  <path fill="#BFBEBE" d="M76.975,24.503c1.305-0.051,1.797-0.843,3.374-0.843c1.574,0,2.018,0.843,3.396,0.817   c1.401-0.025,2.292-1.275,3.149-2.529c0.435-0.634,0.758-1.26,0.981-1.771c-0.758-0.012-1.603-0.021-2.276-0.021   c-1.654,0-2.31-0.326-5.421-0.326c-3.115,0-3.692,0.418-5.229,0.533c-0.705,0.054-1.466,0.058-2.084,0.046   c0.266,0.546,0.557,1.048,0.862,1.487C74.591,23.148,75.622,24.555,76.975,24.503z"/>
</g>
</svg>
