<svg xmlns="http://www.w3.org/2000/svg" viewBox="0 0 920 517"><defs><style>.cls-1{isolation:isolate;}.cls-2{fill:transparent;}.cls-3,.cls-4,.cls-5{fill:#fff;}.cls-15,.cls-3,.cls-8{opacity:0.1;}.cls-5{opacity:0.5;}.cls-6{fill:#1975b8;}.cls-7{fill:#e73c31;}.cls-13,.cls-8{mix-blend-mode:multiply;}.cls-9{fill:#e63d31;}.cls-10{fill:#ef6623;}.cls-11{fill:#ad2126;}.cls-12{fill:#808083;}.cls-13{opacity:0.2;}.cls-14{fill:#111;}.cls-15{fill:#b2b1a4;}.cls-16{fill:#1a1a1a;}</style></defs><title>homecolorB</title><g class="cls-1"><g id="Layer_1" data-name="Layer 1"><rect class="cls-2" width="920" height="517"/><circle class="cls-3" cx="460" cy="258.5" r="255.23"/><circle class="cls-3" cx="460" cy="258.5" r="176.96"/><path class="cls-4" d="M14.15,418.85A10.55,10.55,0,1,1,24.71,408.3,10.56,10.56,0,0,1,14.15,418.85Zm0-19.46a8.91,8.91,0,1,0,8.91,8.91A8.92,8.92,0,0,0,14.15,399.39Z"/><path class="cls-4" d="M771,500.7a10.36,10.36,0,1,1,10.35-10.36A10.37,10.37,0,0,1,771,500.7Zm0-19.46a9.1,9.1,0,1,0,9.1,9.1A9.11,9.11,0,0,0,771,481.24Z"/><path class="cls-4" d="M903.49,304.35A10.36,10.36,0,1,1,913.85,294,10.37,10.37,0,0,1,903.49,304.35Zm0-19.46a9.1,9.1,0,1,0,9.1,9.1A9.11,9.11,0,0,0,903.49,284.89Z"/><path class="cls-5" d="M605.66,316.93a1.51,1.51,0,0,1-1.55-1.46h0a1.49,1.49,0,0,1,1.46-1.55h0a1.49,1.49,0,0,1,1.55,1.46h0a1.5,1.5,0,0,1-1.46,1.55Zm-8.44-.09a1.5,1.5,0,0,1-1.42-1.59h0a1.5,1.5,0,0,1,1.58-1.42h0a1.51,1.51,0,0,1,1.43,1.58h0a1.51,1.51,0,0,1-1.51,1.43h-.08ZM612.41,315a1.53,1.53,0,0,1,1.34-1.66h0a1.51,1.51,0,0,1,1.66,1.34h0a1.5,1.5,0,0,1-1.34,1.66h-.16A1.52,1.52,0,0,1,612.41,315Zm-23.6,1a1.51,1.51,0,0,1-1.27-1.71h0a1.5,1.5,0,0,1,1.71-1.27h0a1.5,1.5,0,0,1,1.27,1.7h0A1.52,1.52,0,0,1,589,316h0ZM620.67,314a1.49,1.49,0,0,1,1.22-1.74h0a1.51,1.51,0,0,1,1.75,1.22h0a1.52,1.52,0,0,1-1.23,1.75h0l-.26,0h0A1.5,1.5,0,0,1,620.67,314Zm-40.17.4a1.53,1.53,0,0,1-1.09-1.84h0a1.51,1.51,0,0,1,1.84-1.08h0a1.49,1.49,0,0,1,1.08,1.83h0a1.49,1.49,0,0,1-1.45,1.14h0A1.65,1.65,0,0,1,580.5,314.35Zm48.32-2a1.5,1.5,0,0,1,1.11-1.82h0a1.5,1.5,0,0,1,1.82,1.1h0a1.5,1.5,0,0,1-1.11,1.82h0a1.45,1.45,0,0,1-.35,0h0A1.51,1.51,0,0,1,628.82,312.34Zm-56.41-.56a1.5,1.5,0,0,1-.86-1.95h0a1.51,1.51,0,0,1,2-.87h0a1.51,1.51,0,0,1,.87,2h0a1.51,1.51,0,0,1-1.41,1h0A1.47,1.47,0,0,1,572.41,311.78Zm64.45-1.58a1.52,1.52,0,0,1,1-1.89h0a1.52,1.52,0,0,1,1.88,1h0a1.5,1.5,0,0,1-1,1.88h0a1.41,1.41,0,0,1-.45.07h0A1.51,1.51,0,0,1,636.86,310.2Zm7.89-2.63a1.51,1.51,0,0,1,.87-1.95h0a1.5,1.5,0,0,1,1.94.86h0a1.5,1.5,0,0,1-.86,1.95h0a1.47,1.47,0,0,1-.54.1h0A1.51,1.51,0,0,1,644.75,307.57Zm-80.06.65a1.51,1.51,0,0,1-.62-2h0a1.52,1.52,0,0,1,2-.61h0a1.52,1.52,0,0,1,.61,2.05h0a1.52,1.52,0,0,1-1.33.79h0A1.4,1.4,0,0,1,564.69,308.22Zm87.75-3.82a1.5,1.5,0,0,1,.73-2h0a1.49,1.49,0,0,1,2,.72h0a1.51,1.51,0,0,1-.72,2h0a1.5,1.5,0,0,1-.64.15h0A1.53,1.53,0,0,1,652.44,304.4Zm-95-.73h0a1.5,1.5,0,0,1-.33-2.11h0a1.51,1.51,0,0,1,2.11-.32h0a1.51,1.51,0,0,1,.32,2.11h0a1.49,1.49,0,0,1-1.21.61h0A1.46,1.46,0,0,1,557.49,303.67Zm102.39-3a1.5,1.5,0,0,1,.56-2.05h0a1.5,1.5,0,0,1,2.06.56h0a1.52,1.52,0,0,1-.56,2.06h0a1.42,1.42,0,0,1-.74.2h0A1.51,1.51,0,0,1,659.88,300.67Zm7.11-4.32a1.51,1.51,0,0,1,.38-2.09h0a1.49,1.49,0,0,1,2.09.38h0a1.51,1.51,0,0,1-.37,2.1h0a1.52,1.52,0,0,1-.86.26h0A1.48,1.48,0,0,1,667,296.35Zm6.69-4.94a1.5,1.5,0,0,1,.17-2.12h0a1.52,1.52,0,0,1,2.13.17h0a1.52,1.52,0,0,1-.18,2.13h0a1.49,1.49,0,0,1-1,.35h0A1.49,1.49,0,0,1,673.68,291.41Zm6.16-5.59a1.5,1.5,0,0,1-.06-2.13h0a1.5,1.5,0,0,1,2.12-.05h0a1.5,1.5,0,0,1,.06,2.13h0a1.49,1.49,0,0,1-1.09.47h0A1.48,1.48,0,0,1,679.84,285.82Zm5.5-6.22a1.5,1.5,0,0,1-.29-2.11h0a1.5,1.5,0,0,1,2.11-.3h0a1.51,1.51,0,0,1,.29,2.11h0a1.48,1.48,0,0,1-1.2.6h0A1.55,1.55,0,0,1,685.34,279.6Zm4.74-6.84a1.49,1.49,0,0,1-.57-2.05h0a1.5,1.5,0,0,1,2-.57h0a1.5,1.5,0,0,1,.57,2.05h0a1.52,1.52,0,0,1-1.31.77h0A1.42,1.42,0,0,1,690.08,272.76Zm3.74-7.42a1.5,1.5,0,0,1-.86-1.95h0a1.51,1.51,0,0,1,1.95-.86h0a1.5,1.5,0,0,1,.86,2h0a1.5,1.5,0,0,1-1.41,1h0A1.47,1.47,0,0,1,693.82,265.34Zm2.65-7.88a1.51,1.51,0,0,1-1.12-1.81h0a1.52,1.52,0,0,1,1.82-1.12h0a1.5,1.5,0,0,1,1.12,1.81h0a1.51,1.51,0,0,1-1.47,1.16h0A1.45,1.45,0,0,1,696.47,257.46Zm-13.73-7.84a1.51,1.51,0,0,1-1.39-1.62h0a1.51,1.51,0,0,1,1.62-1.39h0a1.52,1.52,0,0,1,1.39,1.62h0a1.53,1.53,0,0,1-1.5,1.4h-.12Zm6.92-1.49a1.51,1.51,0,0,1,1.34-1.65h0a1.51,1.51,0,0,1,1.66,1.34h0a1.52,1.52,0,0,1-1.34,1.66h-.16A1.51,1.51,0,0,1,689.66,248.13ZM698,249.3a1.51,1.51,0,0,1-1.35-1.65h0a1.48,1.48,0,0,1,1.15-1.32h0A1.5,1.5,0,0,1,699,245h0a1.5,1.5,0,0,1,1.83,1.07h0a1.49,1.49,0,0,1-1.07,1.84h0a1.5,1.5,0,0,1-1.49,1.36H698Zm-23.76-1.2h0a1.51,1.51,0,0,1-1-1.86h0a1.51,1.51,0,0,1,1.86-1h0a1.51,1.51,0,0,1,1,1.86h0a1.5,1.5,0,0,1-1.45,1.1h0A1.4,1.4,0,0,1,674.27,248.1Zm31.54-3.72a1.51,1.51,0,0,1,.82-2h0a1.52,1.52,0,0,1,2,.83h0a1.5,1.5,0,0,1-.83,2h0a1.47,1.47,0,0,1-.58.12h0A1.51,1.51,0,0,1,705.81,244.38Zm-39.55.54h0a1.52,1.52,0,0,1-.64-2h0a1.53,1.53,0,0,1,2-.64h0a1.51,1.51,0,0,1,.63,2h0a1.5,1.5,0,0,1-1.33.81h0A1.46,1.46,0,0,1,666.26,244.92Zm47.12-4a1.51,1.51,0,0,1,.6-2h0a1.51,1.51,0,0,1,2,.6h0a1.5,1.5,0,0,1-.6,2h0a1.47,1.47,0,0,1-.73.19h0A1.52,1.52,0,0,1,713.38,241Zm-16.5-1.4h0a1.51,1.51,0,0,1,1.43-1.57h0a1.52,1.52,0,0,1,1.58,1.43h0a1.51,1.51,0,0,1-1.44,1.58h-.07A1.5,1.5,0,0,1,696.88,239.55Zm-37.78.55h0a1.5,1.5,0,0,1-.17-2.12h0a1.5,1.5,0,0,1,2.12-.17h0a1.51,1.51,0,0,1,.17,2.13h0a1.53,1.53,0,0,1-1.15.52h0A1.48,1.48,0,0,1,659.1,240.1Zm61.45-3.37a1.5,1.5,0,0,1,.41-2.09h0a1.51,1.51,0,0,1,2.09.4h0a1.51,1.51,0,0,1-.4,2.09h0a1.49,1.49,0,0,1-.85.26h0A1.51,1.51,0,0,1,720.55,236.73Zm-67.28-3.07a1.52,1.52,0,0,1,.39-2.1h0a1.52,1.52,0,0,1,2.1.39h0a1.5,1.5,0,0,1-.39,2.09h0a1.5,1.5,0,0,1-.85.27h0A1.52,1.52,0,0,1,653.27,233.66Zm42.63-2.13a1.5,1.5,0,0,1,1.18-1.77h0a1.49,1.49,0,0,1,1.77,1.18h0a1.5,1.5,0,0,1-1.18,1.77h0l-.3,0h0A1.5,1.5,0,0,1,695.9,231.53Zm31.41.35a1.52,1.52,0,0,1,.22-2.12h0a1.51,1.51,0,0,1,2.12.23h0a1.5,1.5,0,0,1-.22,2.12h0a1.5,1.5,0,0,1-.95.34h0A1.48,1.48,0,0,1,727.31,231.88Zm6.33-5.4a1.5,1.5,0,0,1,0-2.13h0a1.51,1.51,0,0,1,2.13.05h0a1.5,1.5,0,0,1,0,2.13h0a1.5,1.5,0,0,1-1,.42h0A1.45,1.45,0,0,1,733.64,226.48Zm-84.16-.72a1.51,1.51,0,0,1,1-1.87h0a1.51,1.51,0,0,1,1.86,1h0a1.5,1.5,0,0,1-1,1.86h0a1.52,1.52,0,0,1-.42.06h0A1.5,1.5,0,0,1,649.48,225.76Zm44.19-2a1.51,1.51,0,0,1,.87-1.95h0a1.5,1.5,0,0,1,1.94.87h0a1.51,1.51,0,0,1-.86,1.95h0a1.51,1.51,0,0,1-.54.1h0A1.51,1.51,0,0,1,693.67,223.79Zm45.82-3.21a1.5,1.5,0,0,1-.12-2.12h0a1.49,1.49,0,0,1,2.12-.13h0a1.51,1.51,0,0,1,.13,2.13h0a1.52,1.52,0,0,1-1.13.5h0A1.49,1.49,0,0,1,739.49,220.58Zm-89.58-2a1.51,1.51,0,0,1-1.43-1.58h0a1.51,1.51,0,0,1,1.58-1.43h0a1.52,1.52,0,0,1,1.44,1.58h0a1.52,1.52,0,0,1-1.51,1.43h-.08Zm40.23-2h0a1.52,1.52,0,0,1,.51-2.08h0a1.51,1.51,0,0,1,2.07.51h0a1.5,1.5,0,0,1-.5,2.06h0a1.44,1.44,0,0,1-.78.23h0A1.51,1.51,0,0,1,690.14,216.58Zm54.71-2.36a1.51,1.51,0,0,1-.29-2.11h0a1.51,1.51,0,0,1,2.11-.29h0a1.49,1.49,0,0,1,.29,2.11h0a1.49,1.49,0,0,1-1.2.6h0A1.49,1.49,0,0,1,744.85,214.22Zm-59.54-4a1.51,1.51,0,0,1,.08-2.13h0a1.5,1.5,0,0,1,2.13.08h0a1.5,1.5,0,0,1-.08,2.13h0a1.54,1.54,0,0,1-1,.4h0A1.56,1.56,0,0,1,685.31,210.2Zm-34.09.23a1.51,1.51,0,0,1-.76-2h0a1.5,1.5,0,0,1,2-.77h0a1.52,1.52,0,0,1,.77,2h0a1.51,1.51,0,0,1-1.38.89h0A1.66,1.66,0,0,1,651.22,210.43Zm98.47-3a1.51,1.51,0,0,1-.46-2.08h0a1.52,1.52,0,0,1,2.08-.47h0a1.52,1.52,0,0,1,.46,2.09h0a1.49,1.49,0,0,1-1.27.7h0A1.5,1.5,0,0,1,749.69,207.46ZM679.29,205a1.51,1.51,0,0,1-.42-2.09h0a1.5,1.5,0,0,1,2.08-.42h0a1.5,1.5,0,0,1,.43,2.09h0a1.52,1.52,0,0,1-1.26.67h0A1.52,1.52,0,0,1,679.29,205Zm-23.66-1.59a1.51,1.51,0,0,1,.26-2.12h0a1.52,1.52,0,0,1,2.12.26h0a1.51,1.51,0,0,1-.27,2.12h0a1.52,1.52,0,0,1-.93.32h0A1.51,1.51,0,0,1,655.63,203.43Zm16.58-1.8a1.51,1.51,0,0,1-1-1.88h0a1.51,1.51,0,0,1,1.88-1h0a1.51,1.51,0,0,1,1,1.88h0a1.52,1.52,0,0,1-1.45,1.07h0A1.29,1.29,0,0,1,672.21,201.63Zm-9.28-2a1.49,1.49,0,0,1,1.3-1.68h0a1.5,1.5,0,0,1,1.69,1.3h0a1.51,1.51,0,0,1-1.31,1.68h-.19A1.49,1.49,0,0,1,662.93,199.58Zm91.05.75a1.51,1.51,0,0,1-.63-2h0a1.51,1.51,0,0,1,2-.62h0a1.51,1.51,0,0,1,.63,2h0a1.51,1.51,0,0,1-1.34.81h0A1.46,1.46,0,0,1,754,200.33Zm3.7-7.44a1.51,1.51,0,0,1-.78-2h0a1.5,1.5,0,0,1,2-.79h0a1.51,1.51,0,0,1,.79,2h0a1.52,1.52,0,0,1-1.39.91h0A1.61,1.61,0,0,1,757.68,192.89Zm3.11-7.72a1.51,1.51,0,0,1-.95-1.91h0a1.51,1.51,0,0,1,1.92-.94h0a1.5,1.5,0,0,1,.94,1.91h0a1.5,1.5,0,0,1-1.43,1h0A1.34,1.34,0,0,1,760.79,185.17Zm2.47-7.94a1.51,1.51,0,0,1-1.1-1.83h0a1.5,1.5,0,0,1,1.83-1.09h0a1.5,1.5,0,0,1,1.09,1.82h0a1.5,1.5,0,0,1-1.46,1.14h0A1.47,1.47,0,0,1,763.26,177.23Zm1.8-8.12a1.51,1.51,0,0,1-1.25-1.73h0a1.51,1.51,0,0,1,1.74-1.24h0a1.51,1.51,0,0,1,1.24,1.73h0a1.51,1.51,0,0,1-1.49,1.26h0Z"/><path class="cls-4" d="M88.63,120.71c20.7,7.89,38.67,14.79,60.62,40.11l2.55-2.68c-22.49-25.82-41.64-33.18-61.86-40.89-7.89-3-16-6.13-24.75-10.42-7.88-4.22-10.14-13-7.71-18.71a9.32,9.32,0,0,1,7.26-5.65A20,20,0,0,0,66.32,88c2.25,4.88,6.07,7.46,10.47,7,3.07-.26,5.09-2.08,5.4-4.84.45-4.05-2.9-9-7-10.28a26.53,26.53,0,0,0-7-1.34,12.15,12.15,0,0,1,3.16-8.23c3.15-3.08,6.23-5,9.11-5.81a22.75,22.75,0,0,0,1.79,7.8c1.67,3.65,4.38,5.85,7.84,6.36,2.76.4,4.94-.76,5.82-3.1,1.5-4-1.22-10.08-5.81-13.08a12.67,12.67,0,0,0-5.91-2,7,7,0,0,1,.39-2C87.54,54.13,91,52,94.72,52.11c5.73.2,11.35,5.61,14.09,10.43,3.37,7,6,13.33,8.51,19.47,8.83,21.46,15.87,38.56,46.81,63.15l2.56-2.7c-30.4-24.1-37.3-40.84-45.95-61.86-2.54-6.19-5.18-12.58-8.65-19.77-3.4-6-10-12.16-17.23-12.42-3.54-.13-8.72,1.18-13.36,8.12a10.05,10.05,0,0,0-1,4.21c-3.32.66-7.28,2.6-11.71,6.94a16.39,16.39,0,0,0-4.27,11.06,13.23,13.23,0,0,0-10.44,7.93c-3.06,7.22-.35,18.22,9.43,23.45C72.4,114.52,80.65,117.66,88.63,120.71ZM84.15,64.19A8.81,8.81,0,0,1,88.1,65.6c3.68,2.41,5.07,6.81,4.36,8.67-.12.34-.36,1-1.82.74a6.29,6.29,0,0,1-4.81-3.83A18.18,18.18,0,0,1,84.15,64.19Zm-15.7,18.1A23.45,23.45,0,0,1,74,83.42c2.65.86,4.72,4.26,4.49,6.35-.08.69-.39,1.42-2.05,1.57-3.76.34-5.86-2.94-6.78-4.92A16.56,16.56,0,0,1,68.45,82.29Z"/><path class="cls-4" d="M130.16,126.44a60.7,60.7,0,0,1-12.5,10.06c-28.67,17.41-66.82,8.35-85-20.19A60.68,60.68,0,0,1,24.4,69.88,59.47,59.47,0,0,1,51.22,32.26c28.75-17.88,67.18-9,85.66,19.81a2.53,2.53,0,0,1,.13.22,60.76,60.76,0,0,1,8,46.65A59.52,59.52,0,0,1,130.16,126.44ZM42,44.51A55.69,55.69,0,0,0,28,70.7a57,57,0,0,0,7.73,43.61c17.15,26.87,53,35.4,80,19a55.88,55.88,0,0,0,25.63-35.25,57,57,0,0,0-7.49-43.82c0-.08-.08-.15-.11-.22C116.36,27,80.22,18.59,53.18,35.4A56.42,56.42,0,0,0,42,44.51Z"/><path class="cls-4" d="M771,429.07a.76.76,0,0,1-.62-.33l-12-18a.74.74,0,0,1,.61-1.15h0l23.24.12a.74.74,0,0,1,.62,1.13l-11.21,17.87a.75.75,0,0,1-.61.35Zm-10.65-18L771,427l9.89-15.78Z"/><path class="cls-4" d="M782,429.15h0l-23-.08a.75.75,0,0,1,0-1.49h0l23,.09a.74.74,0,0,1,.74.74A.75.75,0,0,1,782,429.15Z"/><path class="cls-4" d="M85.17,368.71h0l-23.24-.12a.74.74,0,0,1-.62-1.13l11.21-17.87a.75.75,0,0,1,.61-.35.84.84,0,0,1,.63.33l12,18a.72.72,0,0,1,0,.76A.74.74,0,0,1,85.17,368.71Zm-21.91-1.59,20.52.1L73.15,351.34Z"/><path class="cls-4" d="M85.11,350.72h0l-23-.08a.72.72,0,0,1-.73-.74.74.74,0,0,1,.74-.74h0l23,.08a.74.74,0,1,1,0,1.48Z"/><path class="cls-4" d="M814.93,306.35a.77.77,0,0,1-.39-.11L796.67,295a.72.72,0,0,1-.35-.62.74.74,0,0,1,.33-.62l18-12a.74.74,0,0,1,1.15.62l-.12,23.24a.75.75,0,0,1-.38.65A.77.77,0,0,1,814.93,306.35Zm-16.51-12,15.78,9.9.1-20.52Z"/><path class="cls-4" d="M797,306.17h0a.74.74,0,0,1-.74-.74l.08-23a.74.74,0,0,1,.74-.74h0a.74.74,0,0,1,.74.74l-.08,23A.74.74,0,0,1,797,306.17Z"/><path class="cls-4" d="M477.51,325.57c-2.88-9.12-15.48-11-24.74-11.65a124.89,124.89,0,0,0-22.38.49l-.28,0c-1.89.37-3.63.75-5.24,1.16-2.82-9.89-8.31-22.62-19.85-21.54l-.25,0a11.53,11.53,0,0,0-10.42,10.06c-.86,6.07,2.8,14.28,7.53,20.9a57.69,57.69,0,0,1-21,7.15A81.55,81.55,0,0,0,386,311.8a7.75,7.75,0,0,0,4-3.79c5.47-11.39,3.9-23.48-.13-34.08a7.74,7.74,0,0,0,2.41-8.4c-4.75-14.23-18.32-26.14-26.13-32.07,17.9-37.61,15.28-54.09,14.91-55.92a7.72,7.72,0,0,0-5.53-5.89,65.39,65.39,0,0,0-17.21-2.25c-21.91,0-41.48,10.1-50.29,15.44a56.94,56.94,0,0,0-32.84-10.33,43.58,43.58,0,0,0-9.06.83,7.71,7.71,0,0,0-5.31,4.28c-1.51-.08-3-.14-4.45-.17-5.56-7.35-18.63-19.52-44.18-19.52a91.81,91.81,0,0,0-11.6.77,7.72,7.72,0,0,0-6.68,6.74c-.31,2.56-2.49,22.7,2.75,38.24-7,5.31-8.61,9.76-8.92,12.19a7.73,7.73,0,0,0,7.66,8.7,7.81,7.81,0,0,0,1.66-.18l-1.14,9.5A52.44,52.44,0,0,0,175.38,253a7.73,7.73,0,0,0-.1,8.15c-10.22,13.13-11.32,26.25-11.37,27a7.71,7.71,0,0,0,4.45,7.57,30.61,30.61,0,0,0,4.95,19.18,28.54,28.54,0,0,0,12.13,10.22,3.52,3.52,0,0,0,.42.15,95.42,95.42,0,0,0,21.8,24.6,7.73,7.73,0,0,0,7.2,1.13,69.27,69.27,0,0,0,11,7.95,7.7,7.7,0,0,0,3.8,1,7.78,7.78,0,0,0,3.88-1,53.06,53.06,0,0,0,7.51,4.51l.74.35.39.2a75.82,75.82,0,0,0,25.57,6.88c-9.3,13.35-20.18,22.39-32.49,27,1.16-7.68.76-16-2.46-20.86A11.54,11.54,0,0,0,219,372.45l-.25.08c-10.86,4-10.29,17.88-8.56,28-1.62.33-3.35.74-5.21,1.23l-.28.08a124,124,0,0,0-20.39,9.25c-8.06,4.58-18.6,11.75-17.25,21.21a10.88,10.88,0,0,0,6.35,8.85c3.26,1.46,7.94,2,17.31-2.23a22.77,22.77,0,0,0,2,13.3,7.7,7.7,0,0,0,6.4,4.21l1,0c5.74,0,13-3.18,17.55-17,2.53.68,6.7.78,11.16-3.4,3.78-3.52,4.83-8.3,4.78-12.8a82.33,82.33,0,0,0,33-16.21,107.3,107.3,0,0,0,21.31-23.31c1.63-2.37,3.12-4.73,4.51-7.05l61.75,68.94a7.69,7.69,0,0,0,5.75,2.57,7.9,7.9,0,0,0,1.8-.21,7.71,7.71,0,0,0,5.66-5.52l5.11-19.21L385.63,385a7.73,7.73,0,0,0-1.83-8l-20.51-20.58c2.61.2,5.21.3,7.75.3,2.89,0,5.78-.13,8.58-.38a82.35,82.35,0,0,0,33.88-10.42c1.9,4.18,4.93,8.17,10,9.74,5.84,1.85,9.56-.05,11.55-1.76,6.65,6.95,12.37,9.18,17,9.18a14.41,14.41,0,0,0,7.09-1.9,7.7,7.7,0,0,0,4-6.57,22.82,22.82,0,0,0-4-12.84c10.25-.28,14.25-2.76,16.56-5.49A10.86,10.86,0,0,0,477.51,325.57Z"/><path class="cls-6" d="M378.93,348.66a99.33,99.33,0,0,1-29.24-2,130.45,130.45,0,0,1-36.36-13.52l4.29-7.28a124.38,124.38,0,0,0,34,12.57c25.41,5.26,46.78.76,63.53-13.38l5.45,6.46A73.71,73.71,0,0,1,378.93,348.66Z"/><path class="cls-7" d="M416.27,328.71c-6-2.6-21.44-25.56-10.53-26.94,8.42-.78,12.27,17.88,13.64,23.73l.83-.2A54.22,54.22,0,0,1,431.56,322c6.1-.93,36.19-2.15,38.61,5.91,3.75,10.75-33.57,4.35-39.6,3.33,9.75,1.9,25,12.18,24.75,23.18-9.93,5.56-23.47-17-27.72-23.88,1.63,4.73,8,20.84-1.81,17.73-5.12-1.59-6.79-9.49-7.69-14"/><path class="cls-2" d="M261.73,401a99.54,99.54,0,0,0,19.77-21.64,131.36,131.36,0,0,0,16.92-34.91l-8.14-2.29a124.86,124.86,0,0,1-15.89,32.61c-14.72,21.38-33.27,32.91-55.14,34.28l.53,8.44A73.68,73.68,0,0,0,261.73,401Z"/><polygon class="cls-2" points="359.87 440.47 297.7 371.07 282.76 354.39 319.9 323.83 378.33 382.46 365.06 420.99 359.87 440.47"/><g class="cls-8"><path d="M319.9,323.83l-37.14,30.56,8.16,9.11c26.74-4.72,54.4-17.36,55.37-18Z"/><path d="M343,347a52.19,52.19,0,0,1-18.15,18.21,83.54,83.54,0,0,0,24.74-11.6Z"/></g><polygon class="cls-4" points="304.14 342.17 352.18 312.19 353.98 247.07 354.22 226.39 368.99 185.5 356.12 178 322.4 190.13 286.91 213.26 233.86 183.08 206.99 167.83 216.28 219.74 198.86 263.57 212.01 303.75 255.68 341.06 304.14 342.17"/><path class="cls-7" d="M188.29,317.94c-.93-1.34-1.43-8.71-1.43-8.71,6.68,20.3,25.45,34.47,25.45,34.47-1.31-2.37-4.18-14.81-4.18-14.81,4.61,13.75,21.51,23.34,21.51,23.34-2-1.76-5.57-14-5.57-14,7.19,10.34,15.07,15.62,20.35,18.21l1.06.49h0c43.76,20.74,96.08-14.69,96.08-14.69a52.15,52.15,0,0,1-18.2,18.28c42.56-12.53,46.9-42.81,46.9-42.81.47,7.22-3.73,23.43-3.73,23.43,15.33-16.84,12.64-50.23,12.17-55,3.87,5.31,4.35,18.45,4.35,18.45,11.85-24.69-18.2-55.77-18.2-55.77,7.44,3.37,20.11,19.07,20.11,19.07-5.88-17.63-28.63-32-28.63-32,20.52-40.66,17.18-56.86,17.18-56.86-32.59-8.92-65.86,15.19-65.86,15.19a48.93,48.93,0,0,0-39.81-11.42c8.24.93,15.93,7.47,15.93,7.47a159.07,159.07,0,0,0-31.53-3.2c-3.19-5.58-16.14-23.22-50.66-18.78,0,0-3.14,26.21,4.72,40.18-10.35,6.06-10.89,10.31-10.89,10.31l10.8-3.71L203,241.25a45,45,0,0,0-21.14,15.92c2.38-1.8,10.85-2,10.85-2-19.69,13.73-21.13,33.51-21.13,33.51a12.23,12.23,0,0,1,7.63-5.89C168.43,310,188.29,317.94,188.29,317.94ZM240.88,192.1c-6.67,3.09-23.23,18.21-23.23,18.21-9.44-8.56-6.27-33.09-6.27-33.09C231,177,243.76,190.76,240.88,192.1Zm54,68c-1.08,18-14,31.94-29,31.05S239.77,275,240.85,256.91s14.72-43.41,29.64-42.52S296,242.08,294.88,260.12Zm52.75-38.66s-10.5-13.57-23.22-20.51c0,0,21.48-17,38-12.32C362.37,188.63,358.34,211.2,347.63,221.46Zm30.58,64.21-.39,0c-.06-.37-.1-.58-.1-.58A6.28,6.28,0,0,1,378.21,285.67ZM213,280.47c-2.35-7.23,11.26-3.24,23.51.59s-14.27,14.43-14.27,14.43S215.37,287.7,213,280.47Z"/><path class="cls-7" d="M223.64,408.62c4.33-5,8.25-32.33-2.18-28.85-7.93,2.94-3.31,21.43-2,27.3l-.83.18a54.2,54.2,0,0,0-11.64,2c-5.91,1.8-33.55,13.74-32.24,22,1.28,11.31,32.14-10.62,37.14-14.15-8,5.93-17.24,21.8-12.27,31.61,11.36.71,13.8-25.45,14.64-33.53.58,5,1.78,22.26,9.32,15.19,3.91-3.65,2-11.49.84-16"/><ellipse class="cls-7" cx="282.72" cy="261.92" rx="4.88" ry="9.67" transform="matrix(1, -0.09, 0.09, 1, -23.49, 27.89)"/><ellipse class="cls-4" cx="232.34" cy="263.74" rx="4.88" ry="9.67" transform="translate(-11.06 10.17) rotate(-2.45)"/><path class="cls-4" d="M344.63,285.55l-.1-4.07s-4.9-26.18-21.07-6.94C323.46,274.54,337.53,261.24,344.63,285.55Z"/><path class="cls-4" d="M237.14,324.35c20.31,8.33,38.24,10.23,53.46,5.68a53.33,53.33,0,0,0,9.86-4c26.63-14.17,33.74-47.27,33.81-47.61a.94.94,0,0,0-1.84-.38c-.06.33-7,32.6-32.86,46.34-16.61,8.84-37.39,8.26-61.72-1.73a.94.94,0,0,0-1.23.51A1,1,0,0,0,237.14,324.35Z"/><path class="cls-4" d="M49.89,181.46a1.51,1.51,0,0,1-1.5-1.48,1.5,1.5,0,0,1,1.48-1.52l96.7-1.59a1.5,1.5,0,1,1,0,3l-96.69,1.59Z"/><path class="cls-4" d="M78.52,228.66a1.5,1.5,0,0,1-.51-2.91l68.06-24.91a1.5,1.5,0,0,1,1,2.82L79,228.57A1.54,1.54,0,0,1,78.52,228.66Z"/><path class="cls-4" d="M185.85,136.56a1.5,1.5,0,0,1-1.5-1.5V51.44a1.5,1.5,0,0,1,3,0v83.62A1.5,1.5,0,0,1,185.85,136.56Z"/><path class="cls-4" d="M221.42,131.68a1.35,1.35,0,0,1-.55-.11,1.5,1.5,0,0,1-.84-1.95l26-64.95a1.5,1.5,0,0,1,2.79,1.12l-26,65A1.5,1.5,0,0,1,221.42,131.68Z"/><polygon class="cls-4" points="771.2 410.44 769.95 410.44 769.95 379.1 597.3 379.1 597.3 377.84 771.2 377.84 771.2 410.44"/><path class="cls-4" d="M893.59,294.73H815.05a.74.74,0,0,1,0-1.48h78.54a.74.74,0,0,1,0,1.48Z"/><path class="cls-4" d="M720.29,379.21a.74.74,0,0,1-.74-.74V294a.74.74,0,0,1,.74-.74H797a.74.74,0,0,1,0,1.48H721v83.74A.74.74,0,0,1,720.29,379.21Z"/><rect class="cls-4" x="770.36" y="428.33" width="1.26" height="51.88"/><path class="cls-4" d="M73.49,409H23.88a.74.74,0,1,1,0-1.48H72.75V368a.74.74,0,0,1,1.48,0V408.3A.74.74,0,0,1,73.49,409Z"/><path class="cls-4" d="M73.49,350.72a.74.74,0,0,1-.74-.74V308.65a.74.74,0,0,1,.74-.74h99.06a.74.74,0,0,1,0,1.48H74.23V350A.74.74,0,0,1,73.49,350.72Z"/><path class="cls-4" d="M873.81,100.57l.25-.42C878,93.88,877.35,86,872.61,81c-4.56-4.81-11.56-5.7-17.55-2.42-4.14,2.08-7.19,5.34-9.88,8.22l-1,1a50.22,50.22,0,0,0-2.67-7.7,1.27,1.27,0,0,0-.06-.18l-.19-.38c-.55-1.22-1.14-2.42-1.78-3.62l-.14-.26c-.7-1.27-1.45-2.51-2.25-3.74l-.53-.78c-.58-.85-1.18-1.7-1.82-2.54q-.49-.66-1-1.32c-.5-.63-1-1.25-1.57-1.87-.39-.46-.78-.93-1.19-1.37l-.1-.12c-.84-.92-1.71-1.8-2.6-2.66l-.82-.76c-.82-.77-1.66-1.51-2.5-2.22l-.62-.51c-9.49-7.77-20.54-12.16-30.81-12.24h-.48c-1,0-2.06.06-3.08.15-.29,0-.59.05-.88.09a33,33,0,0,0-3.47.58,31.55,31.55,0,0,0-17.81,11.58,21.94,21.94,0,0,0-.92-4.6c-2-6.87-7.58-11.19-14.21-11a15.65,15.65,0,0,0-14.52,12.29c-.06.22-.12.45-.17.68a20.15,20.15,0,0,0-2.58,0c-6,.23-11,3.11-13.6,7.87-3.09,5.66-2.18,12.32,0,17.4l-.2.14c-6.76,4.69-11.36,14.38-4,27.52a28.61,28.61,0,0,0,6.8,8,12.21,12.21,0,0,0-.63,1.32,10.41,10.41,0,0,0-5.48,6.75c-1.16,4.35.13,8.67,3.83,12.84l.38.42,0,.05c18,21.33,42.45,30.27,67.16,24.52a73.78,73.78,0,0,0,31.69-16.55,37.89,37.89,0,0,0,14.83,7,30.12,30.12,0,0,0,13.42.08c.41-.1.82-.2,1.23-.32,14.49-4.09,18.09-14.19,16.63-22.26,0-.1,0-.2-.05-.3,5.22-2.13,10.49-6.17,12.28-12.3,1.53-5.21,0-10.74-3.91-15A19.06,19.06,0,0,0,873.81,100.57ZM732.24,95.74c1.19-.4,4.92,1.38,7,2.36a9.2,9.2,0,0,0,11.19-14,8.92,8.92,0,0,0,2-.32,41.91,41.91,0,0,0,4.43,8.55,91.89,91.89,0,0,1-3.89,13.71l-1.36.12c-3.78.3-9.25,0-13.85-2.93a12,12,0,0,1-4.05-4A11.64,11.64,0,0,1,732.24,95.74Zm113.58,39a11.74,11.74,0,0,1-5.69,0,18.69,18.69,0,0,1-6.4-2.83c1.41-2,2.75-4.08,4-6.23a9.13,9.13,0,0,0,5,4.33c2.07.74,5.78,2.07,6.55,3.31A11.39,11.39,0,0,1,845.82,134.69Zm-2.3-22.23c0-.13.1-.26.14-.39.1-.32.18-.64.27-1a8.71,8.71,0,0,0,.74,1A9.35,9.35,0,0,0,843.52,112.46Z"/><path class="cls-9" d="M814.15,98.73c8.47,10.37,24.34,6,33.3-1.29,3.93-3.2,7.38-8.45,11.75-10.65,6.17-3.38,10.39,3.1,7,8.51-3,5.21-9.23,8.58-14.74,10.67,5.32-2.39,13.3-2,17.39,2.63,5.82,6.3-1.07,11.87-7.13,13.45-5.41,1.59-10.64.48-16-.77,5.32,1.9,11.48,4.12,12.61,10.47,1.22,6.78-4.31,10.17-10.08,11.8a20.84,20.84,0,0,1-10.17.1c-6.75-1.47-12.43-5.53-16.88-10.72-3.77-4.39-7.48-9.22-9.14-14.86-1.29-4.95-1.85-13.39,1.74-17.45"/><path class="cls-4" d="M729.55,131.72s29.87,12.2,38-47.81,80.49-15.38,67.34,25.33S766.59,175.71,729.55,131.72Z"/><path class="cls-9" d="M733.05,132.56c8.13,1.09,28.09-1.3,34.51-48.65C774,36.73,820,54.23,833.07,83.65a13.16,13.16,0,0,0-1.64-1.42c-5-3.62-7.65,1.85-8.91,6,0-2.66-2-5.51-3.5-7.55-3.47-4.58-9.49-7.91-15.32-7.76a13.6,13.6,0,0,0-9.42,4.68c-4.08,5.11-5.46,12.94-6.33,19.25-1.36,9.9-2.11,20-5.34,29.5-2.18,6.45-5.71,13-10.94,17.53-2.95,2.54-8.17,4.13-12,4.16-7.26.06-14-4.58-19.44-8.9A60.55,60.55,0,0,1,733.05,132.56Z"/><path class="cls-9" d="M734.1,134a19.07,19.07,0,0,1,3.65-5.09,27.91,27.91,0,0,0,4-5.36c.84-1.63,1.62-3.76.75-5.53s-2.72-.47-3.55.69a17.16,17.16,0,0,0-2.42,5.31c-.53,1.89-.85,3.84-1.37,5.74a16.79,16.79,0,0,0,.06-6.36c-.12-.94-.37-2.84-1.46-3.23-2.19-.78-1.86,4.13-1.8,5.06q.22,3.31.3,6.65a30.08,30.08,0,0,1-1.68-3.36c-.47-.9-.85-2.13-1.84-2.63a1.07,1.07,0,0,0-1.6.79c-.45,1.67.78,3.19,1.81,4.35a33.17,33.17,0,0,0,4.19,4.19"/><polygon class="cls-10" points="823.14 107.52 810.08 104.97 814.08 118.66 823.14 107.52"/><path class="cls-11" d="M756.25,120s17.9,0,25-22.58l-21.32,15.36A34.74,34.74,0,0,1,756.25,120Z"/><path class="cls-9" d="M781.48,96.22C768.15,97.56,760,83.29,758.84,71.76c-.51-5,.76-11.2-.77-15.84-2-6.75-9.55-5.16-11,1-1.52,5.84.45,12.59,2.88,18-2.07-5.44-8-10.82-14.16-10.43-8.57.34-7.63,9.15-4.47,14.55C734,84,738.5,86.9,743.15,89.78c-5.1-2.41-11-5.21-16.32-1.52-5.66,3.93-4.14,10.25-1.22,15.47a20.91,20.91,0,0,0,7.12,7.27c5.82,3.73,12.7,4.88,19.52,4.36,5.77-.45,11.81-1.23,17-4,4.42-2.58,11.84-9.64,12.17-15"/><path class="cls-12" d="M824.21,107.11a.91.91,0,0,0,.88-.63c1.12-2.4,3.41-6.11,4.79-5.88h0c.89.17,1.54,2.14,1.85,5.57,0,.64.46,1,.92.83a1.54,1.54,0,0,0,.71-1.52c-.41-4.61-1.4-7-3-7.3h0c-2.89-.48-6.17,6.36-6.54,7.14a1.53,1.53,0,0,0,.15,1.66A.67.67,0,0,0,824.21,107.11Z"/><path class="cls-12" d="M813.09,99.83a.76.76,0,0,0,.26,0,1,1,0,0,0,.9-1c-.3-3.88-1.39-6.07-3.33-6.69-3.36-1.1-7.54,3.65-8,4.2a1,1,0,0,0,1.5,1.27c1.42-1.67,4.35-4.11,5.9-3.6,1,.34,1.75,2.1,2,5A1,1,0,0,0,813.09,99.83Z"/><ellipse class="cls-13" cx="436.95" cy="476.29" rx="185.47" ry="10.68"/><polygon points="599.23 479.38 308.2 479.33 308.2 37.12 600.52 37.12 599.23 479.38"/><polygon class="cls-14" points="599.27 473.75 612.14 474.29 612.14 43.08 600.52 43.08 599.27 473.75"/><polygon class="cls-4" points="599.27 466.41 603.75 459.86 603.75 47.98 600.52 47.98 599.27 466.41"/><rect class="cls-15" x="95.56" y="257.99" width="442.71" height="0.96" transform="translate(57.8 574.86) rotate(-89.88)"/><rect x="378.75" y="257.61" width="442.27" height="1.28" transform="translate(339.81 857.35) rotate(-89.83)"/><polygon points="612.14 474.29 599.89 473.77 599.89 465.34 603.75 459.86 612.14 474.29"/><g id="layer1"><path class="cls-4" d="M454.63,138a1,1,0,0,1-1-1l0-59a1,1,0,0,1,1-1h0a1,1,0,0,1,1,1l0,59a1,1,0,0,1-1,1Z"/><path class="cls-4" d="M454.55,137.23a1,1,0,0,1-.94-.72L435,67.23a1.15,1.15,0,0,1,0-.26,1,1,0,0,1,1.91-.25L455.5,136a1.07,1.07,0,0,1,0,.25,1,1,0,0,1-.72.94A.78.78,0,0,1,454.55,137.23Z"/><path class="cls-4" d="M454.71,137.22l-.25,0a1,1,0,0,1-.72-.94,1.07,1.07,0,0,1,0-.25l18.69-70.37a1,1,0,0,1,1.2-.69,1,1,0,0,1,.72.94,1.07,1.07,0,0,1,0,.25l-18.7,70.37A1,1,0,0,1,454.71,137.22Z"/><path class="cls-4" d="M454.56,138a1,1,0,0,1-.85-.49L424.34,87.14a1,1,0,0,1-.13-.49,1,1,0,0,1,1.82-.49l29.37,50.35a1,1,0,0,1,.13.49,1,1,0,0,1-.48.84A1,1,0,0,1,454.56,138Z"/><path class="cls-4" d="M454.75,138a.94.94,0,0,1-.48-.13,1,1,0,0,1-.49-.85,1,1,0,0,1,.12-.48l29.59-51.91a1,1,0,0,1,1.33-.36,1,1,0,0,1,.49.85,1,1,0,0,1-.12.48L455.6,137.52A1,1,0,0,1,454.75,138Z"/><path class="cls-4" d="M454.52,137.27a1,1,0,0,1-.69-.28L403.13,87.2a.94.94,0,0,1-.29-.69,1,1,0,0,1,.28-.69,1,1,0,0,1,1.38,0l50.7,49.79a1,1,0,0,1-.68,1.67Z"/><path class="cls-4" d="M454.87,137.34a1,1,0,0,1-1-1,1,1,0,0,1,.28-.68l51.38-52.49a1,1,0,0,1,1.67.69,1,1,0,0,1-.28.68l-51.37,52.49A1,1,0,0,1,454.87,137.34Z"/><path class="cls-4" d="M454.52,138a.91.91,0,0,1-.48-.13l-50.7-28.34a1,1,0,0,1-.5-.85.9.9,0,0,1,.13-.47,1,1,0,0,1,1.33-.38L455,136.19a1,1,0,0,1,.5.85,1,1,0,0,1-.12.48A1,1,0,0,1,454.52,138Z"/><path class="cls-4" d="M454.87,138.13a1,1,0,0,1-.84-.48,1,1,0,0,1-.14-.5,1,1,0,0,1,.48-.84l51.42-30.71a1,1,0,0,1,1.34.33,1,1,0,0,1,.14.5,1,1,0,0,1-.48.84L455.37,138A1,1,0,0,1,454.87,138.13Z"/><path id="path8876" d="M493.49,146.35c-5.48,21.57-27.31,34.82-48.66,29.71a39.16,39.16,0,0,1-28.7-47.84c5.32-21.38,26.83-34.85,48.17-30a39.13,39.13,0,0,1,29.23,48"/><path class="cls-4" d="M567.75,318.53h0l-52.61-.34a1,1,0,1,1,0-1.95h0l51.62.34,0-126L462,191.77h0a1,1,0,0,1-1-.87c-2.31-22,1.79-31.12,7-42.7,1.44-3.21,2.93-6.53,4.38-10.36.85-2.78.88-6.83-1.1-9-1.32-1.46-3.41-1.92-6.2-1.36a3.93,3.93,0,0,0-.93.6,6.41,6.41,0,0,1,1.37,2.78c.66,3.15-1,6.28-2.86,7.12a2.64,2.64,0,0,1-3.33-1,5.2,5.2,0,0,1-.49-5.1,12,12,0,0,1,2.39-3.71,11.54,11.54,0,0,0-5.52-1.18,6.74,6.74,0,0,0-4.36,1.91,13,13,0,0,1,2,3.05,5.65,5.65,0,0,1-1.35,6.39,2.89,2.89,0,0,1-3.84-.19c-1.72-1.43-2.16-3.71-1.23-6.26a10.82,10.82,0,0,1,1.63-2.88,4.93,4.93,0,0,0-4.76-.55,8.16,8.16,0,0,0-4.46,9.82,138.86,138.86,0,0,0,5,13c4.59,10.68,8.92,20.76,6.72,39.84a1,1,0,0,1-1,.87l-101.7,1.16,0,122.1,49.75.32a1,1,0,0,1,0,2h0l-50.72-.33a1,1,0,0,1-1-1l0-124a1,1,0,0,1,1-1L449.26,190c1.92-18-2.07-27.28-6.67-38a139.19,139.19,0,0,1-5.12-13.19,10.17,10.17,0,0,1,5.63-12.2,7,7,0,0,1,6.77.93A8.75,8.75,0,0,1,455.7,125a12.45,12.45,0,0,1,7,1.74,5.77,5.77,0,0,1,2-1.2c4.4-.88,6.81.58,8.06,2,2.5,2.76,2.55,7.49,1.5,11-1.5,3.95-3,7.29-4.44,10.52-5,11.17-9,20-6.92,40.82l104.85-1.2h0a1,1,0,0,1,.68.28,1,1,0,0,1,.3.7l0,128a1,1,0,0,1-1,1ZM450,130.32a8.49,8.49,0,0,0-1.24,2.22c-.38,1-.79,2.9.64,4.1.67.56,1.07.39,1.38.15a3.77,3.77,0,0,0,.81-4A12,12,0,0,0,450,130.32Zm12.71-.93a9.85,9.85,0,0,0-2.14,3.34,3.15,3.15,0,0,0,.31,3.08c.45.6.78.46,1,.38,1-.46,2.2-2.74,1.74-4.94A4.43,4.43,0,0,0,462.72,129.39Z"/><path class="cls-4" d="M454.61,169.47a32.32,32.32,0,0,1-7.46-.87,31.43,31.43,0,0,1-19.7-14.32,32,32,0,0,1-3.67-24.55c4.33-17.34,21.88-28.26,39.13-24.34a31.46,31.46,0,0,1,19.94,14.26,32,32,0,0,1,3.8,24.7.65.65,0,0,1,0,.13A33.23,33.23,0,0,1,454.61,169.47Zm1.2-62.92a31.28,31.28,0,0,0-30.13,23.65,30.07,30.07,0,0,0,3.44,23.07,29.45,29.45,0,0,0,18.49,13.43A31.14,31.14,0,0,0,484.72,144s0-.08,0-.12a30.11,30.11,0,0,0-3.57-23.2,29.85,29.85,0,0,0-25.38-14.12Z"/><g id="text8923"><path id="path7343" class="cls-4" d="M391.41,247.58a.57.57,0,0,1-.42-.16.56.56,0,0,1-.15-.43v-2a.54.54,0,0,1,.58-.58h2.4v-14h-2.39a.53.53,0,0,1-.43-.15.61.61,0,0,1-.15-.43v-2a.63.63,0,0,1,.15-.43.67.67,0,0,1,.43-.16l8.23,0a.54.54,0,0,1,.58.58v2a.63.63,0,0,1-.15.43.58.58,0,0,1-.43.16h-2.4v14.05h2.4a.57.57,0,0,1,.42.16.58.58,0,0,1,.16.43v2a.58.58,0,0,1-.16.43.56.56,0,0,1-.42.16l-8.24,0Z"/><path id="path7345" class="cls-4" d="M404.72,247.53a.61.61,0,0,1-.43-.15.63.63,0,0,1-.15-.43V231.79a.6.6,0,0,1,.16-.44.59.59,0,0,1,.42-.15l2.21,0a.58.58,0,0,1,.43.16.56.56,0,0,1,.15.43v1.33a6,6,0,0,1,1.87-1.7,4.79,4.79,0,0,1,2.4-.64,5.71,5.71,0,0,1,2.92.77,5.45,5.45,0,0,1,2.06,2.14,6.3,6.3,0,0,1,.74,3.09v10.18a.58.58,0,0,1-.16.43.56.56,0,0,1-.42.16h-2.22a.59.59,0,0,1-.43-.16.61.61,0,0,1-.15-.43v-9.74a3.2,3.2,0,0,0-.77-2.31,2.87,2.87,0,0,0-2.18-.81,3.41,3.41,0,0,0-2.67,1.15,4.35,4.35,0,0,0-1,3v8.68a.54.54,0,0,1-.58.58Z"/><path id="path7347" class="cls-4" d="M428,247.84a6.75,6.75,0,0,1-3.43-.89,7,7,0,0,1-2.46-2.5,6.6,6.6,0,0,1-.9-3.44v-3.45a7,7,0,0,1,.9-3.45,7.22,7.22,0,0,1,2.45-2.52,6.58,6.58,0,0,1,3.43-.92,6.43,6.43,0,0,1,2.73.57,6.71,6.71,0,0,1,2.27,1.64.62.62,0,0,1,.19.47.81.81,0,0,1-.27.59l-1.21,1.22a.64.64,0,0,1-.47.2.57.57,0,0,1-.47-.27A3.76,3.76,0,0,0,428,234a3.3,3.3,0,0,0-2.38,1,3.23,3.23,0,0,0-1,2.39v3.76a3.2,3.2,0,0,0,1,2.39,3.27,3.27,0,0,0,2.38,1,3.8,3.8,0,0,0,2.77-1.15.7.7,0,0,1,.46-.27.76.76,0,0,1,.47.19l1.21,1.21a.83.83,0,0,1,.28.59.8.8,0,0,1-.2.47,6.38,6.38,0,0,1-2.26,1.66,6.1,6.1,0,0,1-2.73.63Z"/><path id="path7349" class="cls-4" d="M439.18,247.41a1.28,1.28,0,0,1-.9-.35,1.25,1.25,0,0,1-.35-.9V228.77H435.3a.52.52,0,0,1-.58-.58V226a.56.56,0,0,1,.16-.43.58.58,0,0,1,.43-.16l4.81,0a1.06,1.06,0,0,1,.86.39,1.19,1.19,0,0,1,.4.86v17.41H444a.58.58,0,0,1,.43.15.63.63,0,0,1,.15.43v2.13a.58.58,0,0,1-.15.43.59.59,0,0,1-.43.16l-4.82,0Z"/><path id="path7351" class="cls-4" d="M453.22,247.76a5.72,5.72,0,0,1-3-.78,5.43,5.43,0,0,1-2-2.15,6.31,6.31,0,0,1-.75-3.11V231.5a.58.58,0,0,1,.16-.43.56.56,0,0,1,.43-.16l2.24,0a.59.59,0,0,1,.43.16.57.57,0,0,1,.15.43v9.8a3.33,3.33,0,0,0,.78,2.35,2.85,2.85,0,0,0,2.2.78,3.37,3.37,0,0,0,2.68-1.11,4.43,4.43,0,0,0,1-3v-8.82a.57.57,0,0,1,.15-.43.6.6,0,0,1,.44-.16h2.24a.53.53,0,0,1,.43.15.59.59,0,0,1,.16.43v15.33a.58.58,0,0,1-.15.43.6.6,0,0,1-.44.16h-2.24a.55.55,0,0,1-.59-.59v-1.34a6.25,6.25,0,0,1-1.93,1.74,5,5,0,0,1-2.43.6Z"/><path id="path7353" class="cls-4" d="M470.19,247.7a9.74,9.74,0,0,1-3-.46,9.28,9.28,0,0,1-2.56-1.33.72.72,0,0,1-.2-.28,1.29,1.29,0,0,1,0-.39,19.26,19.26,0,0,1,1-1.82.68.68,0,0,1,.59-.36.74.74,0,0,1,.39.12,11.2,11.2,0,0,0,1.93,1.06,6.72,6.72,0,0,0,1.94.31,3.5,3.5,0,0,0,1.85-.45,1.4,1.4,0,0,0,.64-1.22,1.19,1.19,0,0,0-.56-1,12.74,12.74,0,0,0-2.09-.93l-1-.39a14.79,14.79,0,0,1-2.17-1,5.74,5.74,0,0,1-1.54-1.53,4.69,4.69,0,0,1-.59-2.44,4.55,4.55,0,0,1,1.5-3.6,5.88,5.88,0,0,1,4-1.36,9.2,9.2,0,0,1,2.89.46,8.16,8.16,0,0,1,2.49,1.29.45.45,0,0,1,.16.31.56.56,0,0,1,0,.36c-.16.39-.48,1-.87,1.82a.68.68,0,0,1-.56.32.74.74,0,0,1-.39-.12,6.9,6.9,0,0,0-3.72-1.28,2.4,2.4,0,0,0-1.53.44,1.4,1.4,0,0,0-.56,1.15,1.55,1.55,0,0,0,.64,1.25,10,10,0,0,0,2.32,1.14,26,26,0,0,1,2.53,1.09,3.88,3.88,0,0,1,1.66,1.41,3.79,3.79,0,0,1,.8,2.49,4.67,4.67,0,0,1-.79,2.64,5,5,0,0,1-2.14,1.79,8.82,8.82,0,0,1-3.08.56Z"/><path id="path7355" class="cls-4" d="M482.52,228.77a.63.63,0,0,1-.43-.15.6.6,0,0,1-.16-.44V225a.55.55,0,0,1,.59-.59l2,0a.6.6,0,0,1,.44.16.56.56,0,0,1,.16.43v3.16a.6.6,0,0,1-.16.44.59.59,0,0,1-.43.16Zm.68,18.49a1.4,1.4,0,0,1-1-.39,1.43,1.43,0,0,1-.39-1V234h-2.33a.59.59,0,0,1-.44-.15.6.6,0,0,1-.16-.44v-2.09a.56.56,0,0,1,.16-.43.6.6,0,0,1,.44-.16l4.35,0a1.4,1.4,0,0,1,1,.43,1.34,1.34,0,0,1,.44,1V244h2.34a.55.55,0,0,1,.6.6v2.09a.55.55,0,0,1-.6.6h-4.4Z"/><path id="path7357" class="cls-4" d="M495.47,247.42a.92.92,0,0,1-.92-.59l-5.36-15.21a.78.78,0,0,1,0-.28.67.67,0,0,1,.19-.47.76.76,0,0,1,.52-.2l2,0a.79.79,0,0,1,.51.16,1.06,1.06,0,0,1,.36.47l3.94,11.62,3.94-11.66a.78.78,0,0,1,.31-.48.92.92,0,0,1,.56-.16h1.91a.75.75,0,0,1,.52.19.66.66,0,0,1,.2.48.82.82,0,0,1,0,.27l-5.37,15.28a.93.93,0,0,1-.4.48.79.79,0,0,1-.51.16l-2.35,0Z"/><path id="path7359" class="cls-4" d="M513.25,247.16a6.76,6.76,0,0,1-6-3.43,6.61,6.61,0,0,1-.92-3.49v-3.13a7,7,0,0,1,.91-3.49,7.33,7.33,0,0,1,2.52-2.55,6.76,6.76,0,0,1,3.51-.94,6.94,6.94,0,0,1,3.48.9,7.11,7.11,0,0,1,2.56,2.52,6.62,6.62,0,0,1,.92,3.5V239a1.22,1.22,0,0,1-.4.92,1.18,1.18,0,0,1-.88.36l-9.15,0v.16a3.22,3.22,0,0,0,1,2.41,3.38,3.38,0,0,0,2.44,1l4.63,0a.64.64,0,0,1,.44.15.6.6,0,0,1,.16.44v2.11a.59.59,0,0,1-.16.43.6.6,0,0,1-.44.16l-4.6,0Zm3.43-10v-.28a3.26,3.26,0,0,0-1-2.41,3.45,3.45,0,0,0-5.87,2.45v.27Z"/><path id="path7361" class="cls-4" d="M376.94,279.31a7.09,7.09,0,0,1-3.65-1,7.87,7.87,0,0,1-2.65-2.73,7.62,7.62,0,0,1-1-3.77v-6.07a7.62,7.62,0,0,1,1-3.77,7.21,7.21,0,0,1,2.64-2.73,6.85,6.85,0,0,1,3.65-1,7.83,7.83,0,0,1,3.2.66,6.83,6.83,0,0,1,2.54,1.87.69.69,0,0,1,.15.46,1.08,1.08,0,0,1-.23.59l-1.23,1.32a.65.65,0,0,1-.46.24.61.61,0,0,1-.5-.27,4.36,4.36,0,0,0-3.46-1.52,3.4,3.4,0,0,0-1.93.59,4.94,4.94,0,0,0-1.42,1.52,4.38,4.38,0,0,0-.53,2.06v6.07a4.17,4.17,0,0,0,.54,2.06,3.54,3.54,0,0,0,1.42,1.52,3.46,3.46,0,0,0,1.92.58,4.37,4.37,0,0,0,3.46-1.51.75.75,0,0,1,.46-.28.57.57,0,0,1,.46.24l1.24,1.32a.86.86,0,0,1,.27.59.72.72,0,0,1-.16.46,7.14,7.14,0,0,1-2.58,1.87,7.46,7.46,0,0,1-3.15.66Z"/><path id="path7363" class="cls-4" d="M392.43,279.33a6.85,6.85,0,0,1-3.4-.9A7.52,7.52,0,0,1,386.6,276a6.46,6.46,0,0,1-.89-3.35v-3.74a6.83,6.83,0,0,1,.89-3.36A6.35,6.35,0,0,1,389,263.1a6.78,6.78,0,0,1,6.75,0,6.67,6.67,0,0,1,2.48,2.41,6.34,6.34,0,0,1,.89,3.36v3.75a6.83,6.83,0,0,1-.89,3.36,7.15,7.15,0,0,1-2.47,2.45A6.71,6.71,0,0,1,392.43,279.33Zm0-3.32a3.16,3.16,0,0,0,2.35-1,3.33,3.33,0,0,0,1-2.38v-3.75a3.45,3.45,0,0,0-3.37-3.39,3.36,3.36,0,0,0-3.31,3.39v3.75a3.27,3.27,0,0,0,1,2.38A3.12,3.12,0,0,0,392.43,276Z"/><path id="path7365" class="cls-4" d="M403.61,279a.58.58,0,0,1-.43-.16.56.56,0,0,1-.16-.43V263.2a.52.52,0,0,1,.58-.58h2.21a.59.59,0,0,1,.43.16.61.61,0,0,1,.15.43v1.49a5.29,5.29,0,0,1,1.94-1.84,4.58,4.58,0,0,1,2.37-.63,5,5,0,0,1,2.75.74,5.3,5.3,0,0,1,1.95,2.11,5.45,5.45,0,0,1,2.13-2.08,5.91,5.91,0,0,1,2.88-.79,5,5,0,0,1,3.94,1.65,6.28,6.28,0,0,1,1.44,4.34v10.2a.58.58,0,0,1-.15.43.61.61,0,0,1-.43.15H423a.58.58,0,0,1-.43-.16.56.56,0,0,1-.16-.43v-9.75a3.31,3.31,0,0,0-.7-2.31,2.45,2.45,0,0,0-1.95-.83,3.46,3.46,0,0,0-2.68,1.14,4.35,4.35,0,0,0-1,3v8.77a.52.52,0,0,1-.58.58H413.3a.56.56,0,0,1-.42-.16.58.58,0,0,1-.16-.43v-9.74a3.37,3.37,0,0,0-.7-2.31,2.43,2.43,0,0,0-1.94-.82,3.39,3.39,0,0,0-2.68,1.14,4.31,4.31,0,0,0-1,3v8.75a.56.56,0,0,1-.15.43.58.58,0,0,1-.43.16l-2.24-.08Z"/><path id="path7367" class="cls-4" d="M430.56,284.51a.56.56,0,0,1-.43-.16.58.58,0,0,1-.16-.43V263.17a.59.59,0,0,1,.16-.43.58.58,0,0,1,.43-.16h1.87a.58.58,0,0,1,.43.16.56.56,0,0,1,.16.43v1.29a5.17,5.17,0,0,1,1.83-1.69,5.06,5.06,0,0,1,2.39-.59,5.82,5.82,0,0,1,3.13.9,6.84,6.84,0,0,1,2.35,2.4,6.46,6.46,0,0,1,.9,3.26v4a6.27,6.27,0,0,1-.86,3.27,6.5,6.5,0,0,1-2.31,2.43,6.06,6.06,0,0,1-3.2.9,5.39,5.39,0,0,1-2.08-.44,5.68,5.68,0,0,1-1.76-1.29v6.28a.59.59,0,0,1-.16.43.57.57,0,0,1-.43.15h-2.26Zm6.2-8.43a3.2,3.2,0,0,0,2.39-1,3.32,3.32,0,0,0,1-2.4v-3.81a3.29,3.29,0,0,0-1-2.39,3.41,3.41,0,0,0-5.79,2.4v3.8a3.3,3.3,0,0,0,1,2.4A3.35,3.35,0,0,0,436.76,276.08Z"/><path id="path7369" class="cls-4" d="M453.86,279.4a7,7,0,0,1-3.46-.91,7.51,7.51,0,0,1-2.47-2.48,6.31,6.31,0,0,1-.91-3.38v-3.78a6.89,6.89,0,0,1,.9-3.38A7,7,0,0,1,450.4,263a6.53,6.53,0,0,1,3.45-.91,6.72,6.72,0,0,1,3.42.9,6.86,6.86,0,0,1,2.52,2.44,6.34,6.34,0,0,1,.91,3.39v3.78a6.86,6.86,0,0,1-.91,3.39,7.27,7.27,0,0,1-2.51,2.48A6.87,6.87,0,0,1,453.86,279.4Zm0-3.35a3.2,3.2,0,0,0,2.39-1,3.3,3.3,0,0,0,1-2.4v-3.78a3.26,3.26,0,0,0-1-2.4,3.38,3.38,0,0,0-5.77,2.4v3.78a3.24,3.24,0,0,0,1,2.4A3.28,3.28,0,0,0,453.86,276.05Z"/><path id="path7371" class="cls-4" d="M465.27,279a.58.58,0,0,1-.43-.16.6.6,0,0,1-.16-.44V263.13a.58.58,0,0,1,.16-.43.6.6,0,0,1,.44-.16h2.24a.64.64,0,0,1,.44.15.65.65,0,0,1,.16.44v1.34a5.81,5.81,0,0,1,1.89-1.7,4.76,4.76,0,0,1,2.45-.63,5.67,5.67,0,0,1,3,.78,5.56,5.56,0,0,1,2.1,2.17,6.43,6.43,0,0,1,.75,3.12v10.27a.58.58,0,0,1-.15.43.6.6,0,0,1-.44.16h-2.25a.55.55,0,0,1-.6-.6v-9.83a3.19,3.19,0,0,0-.79-2.32,2.87,2.87,0,0,0-2.21-.83,3.49,3.49,0,0,0-2.73,1.15,4.32,4.32,0,0,0-1,3v8.84a.59.59,0,0,1-.16.43.58.58,0,0,1-.43.16l-2.25-.08Z"/><path id="path7373" class="cls-4" d="M489,279a7.09,7.09,0,0,1-3.49-.91A7.35,7.35,0,0,1,483,275.6a6.6,6.6,0,0,1-.92-3.48V269a7.06,7.06,0,0,1,.91-3.48,7,7,0,0,1,2.5-2.53,6.7,6.7,0,0,1,3.49-.92,6.83,6.83,0,0,1,3.45.91,7,7,0,0,1,2.55,2.53,6.68,6.68,0,0,1,.91,3.48v1.94a1.28,1.28,0,0,1-1.27,1.27h-9.09v.16a3.25,3.25,0,0,0,1,2.41,3.35,3.35,0,0,0,2.42,1h4.61a.55.55,0,0,1,.6.6v2.09a.55.55,0,0,1-.6.6Zm3.42-10v-.27a3.43,3.43,0,0,0-5.88-2.41,3.25,3.25,0,0,0-1,2.41v.28Z"/><path id="path7375" class="cls-4" d="M500.21,279.05a.58.58,0,0,1-.43-.16.56.56,0,0,1-.16-.43V263.09a.55.55,0,0,1,.6-.6h2.27a.55.55,0,0,1,.6.6v1.34a5.77,5.77,0,0,1,1.91-1.7,4.84,4.84,0,0,1,2.47-.64,5.79,5.79,0,0,1,3,.79,5.61,5.61,0,0,1,2.11,2.18,6.26,6.26,0,0,1,.76,3.13v10.32a.55.55,0,0,1-.6.6h-2.28a.6.6,0,0,1-.44-.16.56.56,0,0,1-.16-.43v-9.88a3.2,3.2,0,0,0-.8-2.34,3,3,0,0,0-2.24-.83,3.55,3.55,0,0,0-2.75,1.15,4.39,4.39,0,0,0-1,3.05v8.88a.6.6,0,0,1-.16.44.59.59,0,0,1-.44.15l-2.27-.08Z"/><path id="path7377" class="cls-4" d="M523.94,279.08a5.17,5.17,0,0,1-3.72-1.4,5,5,0,0,1-1.41-3.65v-8.34h-2a.55.55,0,0,1-.6-.6v-2a.55.55,0,0,1,.6-.6h2v-3.14a.58.58,0,0,1,.16-.43.6.6,0,0,1,.44-.16h2.28a.55.55,0,0,1,.6.6v3.14h5a.55.55,0,0,1,.6.6v2.06a.55.55,0,0,1-.6.6h-5v8.15a2,2,0,0,0,.48,1.39,1.81,1.81,0,0,0,1.36.52l3.09,0a.55.55,0,0,1,.6.6v2a.58.58,0,0,1-.16.43.6.6,0,0,1-.44.16l-3.29,0Z"/><path id="path7379" class="cls-4" d="M536.55,279.49a9.73,9.73,0,0,1-3-.48,9.57,9.57,0,0,1-2.62-1.36.72.72,0,0,1-.2-.28,1.33,1.33,0,0,1,0-.39,18.43,18.43,0,0,1,1-1.83.71.71,0,0,1,.6-.36.77.77,0,0,1,.4.12,10.29,10.29,0,0,0,2,1.07,6.55,6.55,0,0,0,2,.32,3.46,3.46,0,0,0,1.89-.43,1.44,1.44,0,0,0,.65-1.24,1.21,1.21,0,0,0-.57-1,13,13,0,0,0-2.13-1l-1-.4a14.37,14.37,0,0,1-2.21-1,6.08,6.08,0,0,1-1.57-1.55,4.73,4.73,0,0,1-.6-2.47,4.52,4.52,0,0,1,1.53-3.62,6,6,0,0,1,4.1-1.36,9.45,9.45,0,0,1,2.93.47,8.38,8.38,0,0,1,2.54,1.32.45.45,0,0,1,.16.31.56.56,0,0,1,0,.36c-.16.4-.48,1-.88,1.84a.64.64,0,0,1-.57.32.77.77,0,0,1-.4-.12,7.1,7.1,0,0,0-3.78-1.32,2.57,2.57,0,0,0-1.57.44,1.42,1.42,0,0,0-.56,1.16,1.59,1.59,0,0,0,.64,1.27,10.72,10.72,0,0,0,2.37,1.16,23.79,23.79,0,0,1,2.58,1.11,4.14,4.14,0,0,1,1.69,1.43,3.83,3.83,0,0,1,.81,2.52,4.57,4.57,0,0,1-.81,2.66,5,5,0,0,1-2.17,1.8,9.62,9.62,0,0,1-3.14.55Z"/></g><g id="text8929"><path id="path7312" class="cls-4" d="M409.05,320a.28.28,0,0,1-.12,0,.15.15,0,0,1,0-.12v-7.59a.15.15,0,0,1,0-.12.17.17,0,0,1,.11,0h.63a.14.14,0,0,1,.11,0,.15.15,0,0,1,0,.12v3.16l3.81,0v-3.17a.18.18,0,0,1,0-.12.15.15,0,0,1,.12,0h.62a.15.15,0,0,1,.12,0,.14.14,0,0,1,0,.11v7.6a.12.12,0,0,1,0,.11.14.14,0,0,1-.11,0h-.63a.13.13,0,0,1-.11,0,.15.15,0,0,1,0-.12v-3.6l-3.81,0v3.59a.15.15,0,0,1,0,.12.12.12,0,0,1-.11,0Z"/><path id="path7314" class="cls-4" d="M418.72,320a2.69,2.69,0,0,1-1.24-.32,2.46,2.46,0,0,1-.9-.91,2.42,2.42,0,0,1-.31-1.25v-1.64a2.89,2.89,0,0,1,.31-1.26,2.18,2.18,0,0,1,.89-.89,2.33,2.33,0,0,1,1.25-.31,2.85,2.85,0,0,1,1.24.32,2.53,2.53,0,0,1,.9.91,2.36,2.36,0,0,1,.31,1.26v.78a.48.48,0,0,1-.12.31.33.33,0,0,1-.27.12l-3.62,0v.51a1.78,1.78,0,0,0,.2.79,2.17,2.17,0,0,0,.58.59,1.77,1.77,0,0,0,.78.2h1.63a.14.14,0,0,1,.16.16v.51a.15.15,0,0,1,0,.12.17.17,0,0,1-.11,0Zm1.56-3.75v-.43a1.38,1.38,0,0,0-.24-.78,1.32,1.32,0,0,0-.58-.59,1.4,1.4,0,0,0-.78-.24,1.32,1.32,0,0,0-.78.23,1.35,1.35,0,0,0-.58.58,1.74,1.74,0,0,0-.2.78v.43Z"/><path id="path7316" class="cls-4" d="M424,322.27a.21.21,0,0,1-.16-.08.21.21,0,0,1,0-.15l.66-1.88-2.26-6.28v-.08a.14.14,0,0,1,.16-.16h.5a.15.15,0,0,1,.12,0s.08,0,.08.11l1.79,5.11,1.76-5.09a.2.2,0,0,1,.07-.11.15.15,0,0,1,.12,0h.51a.2.2,0,0,1,.15.08.24.24,0,0,1,0,.16l-2.88,8.25s0,.08-.08.12a.14.14,0,0,1-.11,0H424Z"/><path id="path7318" class="cls-4" d="M431,320.24a2.6,2.6,0,0,1-1.21-.32,2.25,2.25,0,0,1-.86-.87,2.36,2.36,0,0,1-.31-1.21v-2a2.61,2.61,0,0,1,.32-1.22,2,2,0,0,1,.85-.86,2.74,2.74,0,0,1,1.21-.3,2.22,2.22,0,0,1,.9.16,2.44,2.44,0,0,1,.78.48v-2.55a.14.14,0,0,1,.16-.16h.59a.14.14,0,0,1,.11,0,.15.15,0,0,1,0,.12V320a.18.18,0,0,1,0,.12.11.11,0,0,1-.12,0h-.51a.14.14,0,0,1-.16-.16v-.51a1.59,1.59,0,0,1-.78.59A1.73,1.73,0,0,1,431,320.24Zm.07-.82a1.77,1.77,0,0,0,.79-.19,2,2,0,0,0,.58-.58,1.41,1.41,0,0,0,.24-.79V316a1.42,1.42,0,0,0-.23-.79,1.45,1.45,0,0,0-.59-.59,1.36,1.36,0,0,0-.78-.24,1.48,1.48,0,0,0-.78.23,1.38,1.38,0,0,0-.58.59,1.74,1.74,0,0,0-.2.78v1.88a1.78,1.78,0,0,0,.2.79,2.17,2.17,0,0,0,.58.59A1.77,1.77,0,0,0,431.07,319.42Z"/><path id="path7320" class="cls-4" d="M437.84,320.29a2.84,2.84,0,0,1-1.26-.32,2.61,2.61,0,0,1-.9-.91,2.45,2.45,0,0,1-.31-1.26V316a2.89,2.89,0,0,1,.31-1.26,2.29,2.29,0,0,1,.9-.9,2.32,2.32,0,0,1,1.25-.3,2.84,2.84,0,0,1,1.26.32,2.53,2.53,0,0,1,.9.91,2.36,2.36,0,0,1,.31,1.26v1.77a2.89,2.89,0,0,1-.31,1.25,2.59,2.59,0,0,1-.9.9A2.23,2.23,0,0,1,437.84,320.29Zm0-.82a1.91,1.91,0,0,0,.78-.19,2,2,0,0,0,.58-.59,1.38,1.38,0,0,0,.24-.78V316a1.77,1.77,0,0,0-.82-1.38,1.41,1.41,0,0,0-.79-.24,1.48,1.48,0,0,0-.78.23,1.43,1.43,0,0,0-.58.59,1.74,1.74,0,0,0-.2.78v1.89a1.74,1.74,0,0,0,.2.78,2.07,2.07,0,0,0,.58.6A1.78,1.78,0,0,0,437.84,319.47Z"/><path id="path7322" class="cls-4" d="M442.22,320.17a.14.14,0,0,1-.16-.16v-6.13a.14.14,0,0,1,.16-.16h.58a.15.15,0,0,1,.12,0,.13.13,0,0,1,0,.11v.63a2.16,2.16,0,0,1,.75-.7,2.25,2.25,0,0,1,1.05-.23,2,2,0,0,1,2.16,2.18V320a.15.15,0,0,1,0,.12.14.14,0,0,1-.11,0h-.59A.14.14,0,0,1,446,320v-4.12a1.45,1.45,0,0,0-.39-1.11,1.34,1.34,0,0,0-1-.4,1.54,1.54,0,0,0-1.22.51,2,2,0,0,0-.47,1.37V320a.18.18,0,0,1,0,.12.15.15,0,0,1-.12,0Z"/><path id="path7324" class="cls-4" d="M452.06,320.27a.13.13,0,0,1-.11,0,.15.15,0,0,1,0-.12v-7.39a.36.36,0,0,1,.12-.28.5.5,0,0,1,.32-.11h1.92a2.68,2.68,0,0,1,1.26.32,2.53,2.53,0,0,1,.9.91,2.26,2.26,0,0,1,.32,1.22,2.49,2.49,0,0,1-.32,1.22,2.36,2.36,0,0,1-.9.9,2.27,2.27,0,0,1-1.26.31h-1.37v2.87a.14.14,0,0,1-.16.16l-.67,0Zm2.12-3.92a1.77,1.77,0,0,0,.79-.19,2.07,2.07,0,0,0,.59-.59,1.3,1.3,0,0,0,.23-.78,1.67,1.67,0,0,0-.82-1.38,1.5,1.5,0,0,0-.79-.25h-1.33v3.14l1.33.05Z"/><path id="path7326" class="cls-4" d="M459.45,312.92a.15.15,0,0,1-.12,0,.18.18,0,0,1,0-.12v-1a.14.14,0,0,1,.16-.16H460a.14.14,0,0,1,.16.16v1a.12.12,0,0,1,0,.11.15.15,0,0,1-.12,0Zm.24,7.41a.48.48,0,0,1-.31-.12.45.45,0,0,1-.12-.32v-5.24h-1.18a.15.15,0,0,1-.12,0,.13.13,0,0,1,0-.11V314a.13.13,0,0,1,0-.11.15.15,0,0,1,.12,0h1.65a.33.33,0,0,1,.27.12.36.36,0,0,1,.12.27v5.24h1.19a.14.14,0,0,1,.11,0,.15.15,0,0,1,0,.12v.51a.15.15,0,0,1,0,.12.14.14,0,0,1-.11,0l-1.62,0Z"/><path id="path7328" class="cls-4" d="M465.05,320.48a2.77,2.77,0,0,1-1.26-.32,2.51,2.51,0,0,1-.91-.92,2.34,2.34,0,0,1-.31-1.26v-1.77a2.8,2.8,0,0,1,.32-1.26,2.19,2.19,0,0,1,.91-.9,2.25,2.25,0,0,1,1.26-.31,2.64,2.64,0,0,1,.94.2,2.09,2.09,0,0,1,.79.52.2.2,0,0,1,0,.32l-.27.27a.3.3,0,0,1-.16.08c-.08,0-.12,0-.2-.08a1.61,1.61,0,0,0-1.1-.44,1.38,1.38,0,0,0-.79.23,1.34,1.34,0,0,0-.59.59,1.74,1.74,0,0,0-.2.78v1.9a1.81,1.81,0,0,0,.2.79,2.21,2.21,0,0,0,.59.59,1.78,1.78,0,0,0,.79.2,1.58,1.58,0,0,0,1.1-.42.31.31,0,0,1,.2-.08.21.21,0,0,1,.16.08,1.82,1.82,0,0,1,.27.28.3.3,0,0,1,.08.16.2.2,0,0,1-.08.15,2.56,2.56,0,0,1-.79.51,3.56,3.56,0,0,1-.94.11Z"/><path id="path7330" class="cls-4" d="M468.68,320.39a.14.14,0,0,1-.16-.16v-8.4a.15.15,0,0,1,0-.12.13.13,0,0,1,.11,0h.6a.13.13,0,0,1,.11,0,.14.14,0,0,1,0,.11v4.58h.47l2.25-2.39c.08-.08.12-.12.2-.12h.75a.15.15,0,0,1,.12,0s0,0,0,.08a.15.15,0,0,1,0,.12l-2.57,2.62,2.69,3.37a.12.12,0,0,1,0,.08.15.15,0,0,1,0,.12s0,0-.12,0h-.75a.31.31,0,0,1-.2-.12l-2.41-3h-.47v3a.12.12,0,0,1,0,.11.15.15,0,0,1-.12,0h-.55Z"/><path id="path7332" class="cls-4" d="M476.66,320.44a2.84,2.84,0,0,1-1.27-.32,2.64,2.64,0,0,1-.91-.91,2.42,2.42,0,0,1-.31-1.27v-1.66a2.8,2.8,0,0,1,.32-1.26,2.19,2.19,0,0,1,.91-.9,2.27,2.27,0,0,1,1.26-.31,2.69,2.69,0,0,1,1.27.32,2.51,2.51,0,0,1,.91.92,2.28,2.28,0,0,1,.32,1.26v.79a.53.53,0,0,1-.12.32.36.36,0,0,1-.28.12l-3.68,0V318a1.82,1.82,0,0,0,.2.8,2.25,2.25,0,0,0,.6.59,1.74,1.74,0,0,0,.79.2l1.66,0a.14.14,0,0,1,.16.16v.51a.14.14,0,0,1-.16.16l-1.66,0Zm1.58-3.78v-.43a1.41,1.41,0,0,0-.24-.79,1.48,1.48,0,0,0-.59-.6,1.43,1.43,0,0,0-.79-.24,1.67,1.67,0,0,0-1.39.82,1.78,1.78,0,0,0-.2.79v.43l3.21,0Z"/><path id="path7334" class="cls-4" d="M480.5,320.47a.14.14,0,0,1-.16-.16v-.55a.14.14,0,0,1,.16-.16h.95v-4.82h-.95a.15.15,0,0,1-.12,0,.18.18,0,0,1,0-.12v-.51a.14.14,0,0,1,.16-.16h1.43a.41.41,0,0,1,.4.4V315l.67-.51a7.44,7.44,0,0,1,.67-.43,1.15,1.15,0,0,1,.56-.11h.35a.14.14,0,0,1,.16.16v.55a.14.14,0,0,1-.16.16h-.23a1.25,1.25,0,0,0-.56.11,3.94,3.94,0,0,0-.75.51l-.67.55v3.63h1.34a.14.14,0,0,1,.16.16v.52a.12.12,0,0,1,0,.11.15.15,0,0,1-.12,0l-3.2,0Z"/><path id="path7336" class="cls-4" d="M487.27,313.08a.14.14,0,0,1-.16-.16v-1a.14.14,0,0,1,.16-.16h.55a.14.14,0,0,1,.16.16v1a.15.15,0,0,1,0,.12.14.14,0,0,1-.11,0Zm.28,7.44a.53.53,0,0,1-.32-.12.45.45,0,0,1-.12-.32v-5.26h-1.19a.19.19,0,0,1-.12,0,.15.15,0,0,1,0-.12v-.52a.15.15,0,0,1,0-.12.11.11,0,0,1,.12,0h1.67a.36.36,0,0,1,.28.12.35.35,0,0,1,.11.27v5.26h1.19a.14.14,0,0,1,.16.16v.51a.14.14,0,0,1-.16.16l-1.63,0Z"/><path id="path7338" class="cls-4" d="M491,320.5a.14.14,0,0,1-.16-.16v-6.17a.15.15,0,0,1,0-.12.18.18,0,0,1,.12,0h.6a.14.14,0,0,1,.16.16v.63a2.11,2.11,0,0,1,.75-.71,2.5,2.5,0,0,1,1.07-.23,2.21,2.21,0,0,1,1.59.61,2.1,2.1,0,0,1,.6,1.58v4.32a.14.14,0,0,1-.16.16h-.55a.14.14,0,0,1-.16-.16v-4.15a1.39,1.39,0,0,0-.4-1.11,1.34,1.34,0,0,0-1-.41,1.57,1.57,0,0,0-1.23.51,2,2,0,0,0-.47,1.38v3.76a.14.14,0,0,1-.16.16Z"/><path id="path7340" class="cls-4" d="M499.87,323a3.49,3.49,0,0,1-1.79-.41,1.35,1.35,0,0,1-.68-1.19,1.61,1.61,0,0,1,.2-.75,1.41,1.41,0,0,1,.52-.59,2.19,2.19,0,0,1-.44-.4,1,1,0,0,1-.12-.52,1.34,1.34,0,0,1,.2-.67,1.84,1.84,0,0,1,.56-.55,1.6,1.6,0,0,1-.6-.76,2.18,2.18,0,0,1,.08-2.13,2.14,2.14,0,0,1,.87-.79,2.74,2.74,0,0,1,2.11-.11l2.31,0a.14.14,0,0,1,.16.16v.51a.14.14,0,0,1-.16.16h-1.15a2.25,2.25,0,0,1,0,2.38,1.89,1.89,0,0,1-.88.79,2.56,2.56,0,0,1-1.19.27,2.9,2.9,0,0,1-.92-.17.77.77,0,0,0-.39.32.62.62,0,0,0-.12.39.44.44,0,0,0,.24.4,1.45,1.45,0,0,0,.55.16c.24,0,.6.08,1.12.13l.44,0a5,5,0,0,1,.95.17,1.29,1.29,0,0,1,.68.4,1.14,1.14,0,0,1,.28.87,1.53,1.53,0,0,1-.76,1.42,4.83,4.83,0,0,1-2.11.46Zm0-5.39a1.32,1.32,0,0,0,1.07-.39,1.37,1.37,0,0,0,.4-1,1.36,1.36,0,0,0-.4-1,1.46,1.46,0,0,0-1.07-.4,1.58,1.58,0,0,0-1.12.39,1.36,1.36,0,0,0-.39,1,1.38,1.38,0,0,0,.39,1A1.73,1.73,0,0,0,499.83,317.59Zm.16,4.6a2.93,2.93,0,0,0,1.31-.23.79.79,0,0,0,.52-.79.4.4,0,0,0-.16-.39,1.07,1.07,0,0,0-.4-.21,6.31,6.31,0,0,0-.71-.12,3.39,3.39,0,0,1-.52,0c-.24,0-.52-.05-.84-.09s-.36,0-.47-.08a1,1,0,0,0-.36.43,1.23,1.23,0,0,0-.12.52.78.78,0,0,0,.48.75,2.84,2.84,0,0,0,1.27.25Z"/></g><g id="text8933"><path id="path7239" class="cls-4" d="M355.66,367.72a.5.5,0,0,1-.26-.08.36.36,0,0,1-.12-.27v-.12l3.25-10.05c0-.11.07-.19.15-.23a.45.45,0,0,1,.31-.07h1.14a.54.54,0,0,1,.27.08,1,1,0,0,1,.19.24l3.26,10.14v.12a.36.36,0,0,1-.12.27.32.32,0,0,1-.26.07h-1.08a1.14,1.14,0,0,1-.3-.09.36.36,0,0,1-.15-.27l-.69-2.18-3.41,0-.69,2.16a.37.37,0,0,1-.19.27.34.34,0,0,1-.26.08l-1,0Zm5.13-4.16-1.23-4.05-1.22,4,2.45,0Z"/><path id="path7241" class="cls-4" d="M368.68,368.1a3.67,3.67,0,0,1-1.8-.49,4,4,0,0,1-1.31-1.34,3.8,3.8,0,0,1-.46-1.84v-1.82a3.53,3.53,0,0,1,1.76-3.13,3.57,3.57,0,0,1,1.81-.44,3.52,3.52,0,0,1,1.41.33,3.56,3.56,0,0,1,1.19.87.35.35,0,0,1,.12.23.4.4,0,0,1-.15.31l-.66.66a.33.33,0,0,1-.23.11.32.32,0,0,1-.26-.16,2.06,2.06,0,0,0-1.46-.6,1.76,1.76,0,0,0-1.77,1.76v2a1.8,1.8,0,0,0,.49,1.29,1.76,1.76,0,0,0,1.27.52,2,2,0,0,0,1.46-.57.39.39,0,0,1,.27-.15.35.35,0,0,1,.23.12l.65.67a.53.53,0,0,1,.15.32.37.37,0,0,1-.11.23,4,4,0,0,1-1.19.88,4.81,4.81,0,0,1-1.42.25Z"/><path id="path7243" class="cls-4" d="M376.36,368.2a3.51,3.51,0,0,1-1.81-.49,4,4,0,0,1-1.31-1.34,3.4,3.4,0,0,1-.46-1.83v-1.83a3.73,3.73,0,0,1,.46-1.82,3.5,3.5,0,0,1,1.31-1.31,3.56,3.56,0,0,1,1.8-.44,3.45,3.45,0,0,1,1.43.33,3.77,3.77,0,0,1,1.19.87.31.31,0,0,1,.11.23.37.37,0,0,1-.15.31l-.65.65a.35.35,0,0,1-.23.12.32.32,0,0,1-.27-.16,2,2,0,0,0-1.46-.6,1.68,1.68,0,0,0-1.27.53,1.66,1.66,0,0,0-.5,1.23v2a1.76,1.76,0,0,0,.5,1.29,1.72,1.72,0,0,0,1.27.52,2,2,0,0,0,1.46-.56c.08-.08.15-.16.27-.15s.15,0,.23.12l.65.67a.47.47,0,0,1,.16.31.31.31,0,0,1-.12.23,3.8,3.8,0,0,1-1.19.88,4.24,4.24,0,0,1-1.42.25Z"/><path id="path7245" class="cls-4" d="M384.05,368.12a3.64,3.64,0,0,1-1.81-.5,3.91,3.91,0,0,1-1.31-1.34,3.69,3.69,0,0,1-.46-1.83v-1.64a3.62,3.62,0,0,1,.46-1.82,3.43,3.43,0,0,1,1.31-1.31,3.64,3.64,0,0,1,3.58,0,3.64,3.64,0,0,1,1.78,3.18v1a.62.62,0,0,1-.2.46.61.61,0,0,1-.46.19l-4.7-.06v.08a1.8,1.8,0,0,0,.5,1.29,1.76,1.76,0,0,0,1.27.52l2.39,0a.65.65,0,0,1,.23.09.26.26,0,0,1,.08.23v1.09a.49.49,0,0,1-.08.23.26.26,0,0,1-.23.08l-2.35,0Zm1.77-5.24v-.12a1.63,1.63,0,0,0-.54-1.25,1.71,1.71,0,0,0-2.5,0,1.67,1.67,0,0,0-.5,1.24v.15l3.54.05Z"/><path id="path7247" class="cls-4" d="M392,368.42a4.47,4.47,0,0,1-1.58-.29,5.27,5.27,0,0,1-1.35-.72.41.41,0,0,1-.11-.16v-.2c.07-.15.23-.46.5-1a.35.35,0,0,1,.31-.19.3.3,0,0,1,.19.08,4.27,4.27,0,0,0,1,.56,3.06,3.06,0,0,0,1,.17,1.64,1.64,0,0,0,1-.23.75.75,0,0,0,.35-.65.6.6,0,0,0-.27-.55,6.68,6.68,0,0,0-1.08-.53l-.54-.2a5.84,5.84,0,0,1-1.12-.56,2.68,2.68,0,0,1-.81-.83,2.56,2.56,0,0,1-.31-1.29A2.45,2.45,0,0,1,390,360a3.07,3.07,0,0,1,2.12-.68,4.32,4.32,0,0,1,1.51.3,3.89,3.89,0,0,1,1.31.72.2.2,0,0,1,.08.15.18.18,0,0,1,0,.2,9.46,9.46,0,0,1-.47,1,.29.29,0,0,1-.27.15.3.3,0,0,1-.19-.08,3.58,3.58,0,0,0-1.93-.73,1.22,1.22,0,0,0-.81.23.72.72,0,0,0-.27.62.79.79,0,0,0,.35.66,5.65,5.65,0,0,0,1.23.64c.58.25,1,.45,1.32.61a2.74,2.74,0,0,1,.88.75,2.14,2.14,0,0,1,.43,1.33,2.37,2.37,0,0,1-.42,1.4,2.63,2.63,0,0,1-1.12.92,4.47,4.47,0,0,1-1.67.29Z"/><path id="path7249" class="cls-4" d="M399.42,368.52a4.31,4.31,0,0,1-1.59-.29,4.83,4.83,0,0,1-1.35-.72.55.55,0,0,1-.12-.16v-.19c.08-.16.23-.47.5-1a.37.37,0,0,1,.31-.19.31.31,0,0,1,.2.08,4.08,4.08,0,0,0,1,.56,3.06,3.06,0,0,0,1,.17,1.73,1.73,0,0,0,1-.22.76.76,0,0,0,.35-.66.58.58,0,0,0-.27-.55,6.27,6.27,0,0,0-1.08-.53l-.54-.2a6,6,0,0,1-1.13-.56,2.92,2.92,0,0,1-.81-.83,2.73,2.73,0,0,1-.31-1.29,2.46,2.46,0,0,1,.78-1.91,3.07,3.07,0,0,1,2.12-.67,4,4,0,0,1,1.51.29,3.94,3.94,0,0,1,1.32.72.21.21,0,0,1,.08.16.21.21,0,0,1,0,.19,9.59,9.59,0,0,1-.47,1,.29.29,0,0,1-.27.16.42.42,0,0,1-.19-.08,3.56,3.56,0,0,0-1.94-.73,1.22,1.22,0,0,0-.81.22.73.73,0,0,0-.27.62.81.81,0,0,0,.35.67,5.79,5.79,0,0,0,1.24.64c.58.24,1,.44,1.31.6a2.7,2.7,0,0,1,.89.76,2.12,2.12,0,0,1,.43,1.33,2.37,2.37,0,0,1-.43,1.4,2.66,2.66,0,0,1-1.12.93,4.59,4.59,0,0,1-1.66.28Z"/><path id="path7251" class="cls-4" d="M405.88,358.65a.53.53,0,0,1-.23-.08.29.29,0,0,1-.08-.24v-1.68a.49.49,0,0,1,.08-.23.26.26,0,0,1,.23-.08h1.05a.84.84,0,0,1,.23.09c.08,0,.08.15.08.23v1.68a.57.57,0,0,1-.08.24c0,.07-.16.07-.23.07Zm.35,9.77a.9.9,0,0,1-.54-.2.72.72,0,0,1-.19-.55v-6.25l-1.24,0a.58.58,0,0,1-.23-.08.28.28,0,0,1-.08-.23V360a.53.53,0,0,1,.08-.23.28.28,0,0,1,.23-.08l2.29,0a.75.75,0,0,1,.54.24.72.72,0,0,1,.24.55v6.26l1.24,0a.53.53,0,0,1,.23.08.27.27,0,0,1,.08.23v1.1a.53.53,0,0,1-.08.23.27.27,0,0,1-.23.08l-2.33-.08Z"/><path id="path7253" class="cls-4" d="M414.34,368.73a2.51,2.51,0,0,1-2.21-1.2v.66a.57.57,0,0,1-.08.24.3.3,0,0,1-.23.07h-1a.49.49,0,0,1-.23-.08.29.29,0,0,1-.08-.24V357.1a.53.53,0,0,1,.08-.23.28.28,0,0,1,.23-.08l1.17,0a.53.53,0,0,1,.23.08.28.28,0,0,1,.08.23v3.41a2.58,2.58,0,0,1,.89-.7,2.74,2.74,0,0,1,1.13-.25,3.26,3.26,0,0,1,1.71.49,3.71,3.71,0,0,1,1.25,1.3,3.6,3.6,0,0,1,.46,1.77v2.12a3.47,3.47,0,0,1-.46,1.75,3.21,3.21,0,0,1-1.25,1.28,3.49,3.49,0,0,1-1.71.44Zm-.23-1.76a1.59,1.59,0,0,0,1.24-.49,1.78,1.78,0,0,0,.55-1.29v-2a1.65,1.65,0,0,0-.55-1.26,1.72,1.72,0,0,0-2.52,0,1.75,1.75,0,0,0-.55,1.25v2a1.8,1.8,0,0,0,.55,1.3A1.75,1.75,0,0,0,414.11,367Z"/><path id="path7255" class="cls-4" d="M420.92,368.63a.68.68,0,0,1-.47-.2.66.66,0,0,1-.2-.48v-9.28l-1.4,0a.49.49,0,0,1-.23-.08c-.08,0-.08-.16-.08-.23V357.2a.49.49,0,0,1,.08-.23c0-.08.15-.08.23-.08l2.57,0a.66.66,0,0,1,.47.2.7.7,0,0,1,.19.48v9.28l1.41,0a.58.58,0,0,1,.23.08.29.29,0,0,1,.08.24v1.13a.57.57,0,0,1-.08.24.27.27,0,0,1-.23.07l-2.57,0Z"/><path id="path7257" class="cls-4" d="M428.63,368.73a3.61,3.61,0,0,1-1.83-.49,4,4,0,0,1-1.33-1.35A3.76,3.76,0,0,1,425,365v-1.65a3.67,3.67,0,0,1,.47-1.83,3.51,3.51,0,0,1,1.33-1.32,3.65,3.65,0,0,1,1.83-.45,3.64,3.64,0,0,1,3.59,3.7v1a.65.65,0,0,1-.66.66l-4.76-.07v.08a1.78,1.78,0,0,0,1.79,1.83l2.42,0a.57.57,0,0,1,.24.08.29.29,0,0,1,.08.24v1.1a.53.53,0,0,1-.08.23.29.29,0,0,1-.24.08l-2.38,0Zm1.8-5.27v-.11a1.68,1.68,0,0,0-.55-1.27,1.81,1.81,0,0,0-1.25-.56,1.76,1.76,0,0,0-1.79,1.78v.16l3.59,0Z"/><path id="path7259" class="cls-4" d="M440.36,369a.5.5,0,0,1-.47-.32l-2.67-8.09a.3.3,0,0,1,0-.16.23.23,0,0,1,.12-.23.36.36,0,0,1,.28-.12l1.05,0a.58.58,0,0,1,.28.08,1.33,1.33,0,0,1,.19.24l1.88,6.23,1.68-6.19a.42.42,0,0,1,.43-.31l1.06,0a.58.58,0,0,1,.28.08,1,1,0,0,1,.19.24l1.85,6.23,1.76-6.19a.37.37,0,0,1,.16-.23.36.36,0,0,1,.27-.08l1,0a.36.36,0,0,1,.28.12.35.35,0,0,1,.12.24.29.29,0,0,1,0,.15l-2.51,8c0,.12-.08.2-.2.23a.36.36,0,0,1-.27.08l-1.22,0a.89.89,0,0,1-.31-.08.27.27,0,0,1-.16-.24l-1.72-5.84L442,368.68c0,.12-.08.2-.19.24a.42.42,0,0,1-.28.07Z"/><path id="path7261" class="cls-4" d="M454.91,369.1a3.76,3.76,0,0,1-1.85-.5,4,4,0,0,1-1.33-1.35,3.71,3.71,0,0,1-.48-1.86v-1.65a3.74,3.74,0,0,1,.47-1.85,3.69,3.69,0,0,1,1.34-1.32,3.84,3.84,0,0,1,1.85-.45,3.66,3.66,0,0,1,3.14,1.86,3.65,3.65,0,0,1,.48,1.85v1a.66.66,0,0,1-.2.47.69.69,0,0,1-.47.19l-4.8-.07v.08a1.78,1.78,0,0,0,1.81,1.84l2.44,0a.53.53,0,0,1,.23.08.29.29,0,0,1,.08.24v1.1a.57.57,0,0,1-.08.24.29.29,0,0,1-.23.07l-2.4,0Zm1.81-5.29v-.12a1.68,1.68,0,0,0-.55-1.27,1.81,1.81,0,0,0-1.26-.56,1.74,1.74,0,0,0-1.3.53,1.71,1.71,0,0,0-.51,1.25v.16l3.62.05Z"/><path id="path7263" class="cls-4" d="M464.47,369.43a2.94,2.94,0,0,1-1.26-.29,2.86,2.86,0,0,1-1-.92v.67a.58.58,0,0,1-.08.23.29.29,0,0,1-.24.08l-1,0a.57.57,0,0,1-.24-.08.29.29,0,0,1-.08-.24V357.72a.57.57,0,0,1,.08-.24.28.28,0,0,1,.23-.08l1.19,0a.58.58,0,0,1,.23.08.29.29,0,0,1,.08.24v3.43a2.43,2.43,0,0,1,.91-.7,2.64,2.64,0,0,1,1.14-.26,3.39,3.39,0,0,1,1.74.49,3.72,3.72,0,0,1,1.26,1.32,3.59,3.59,0,0,1,.47,1.78v2.13a3.45,3.45,0,0,1-.47,1.77,3.37,3.37,0,0,1-1.26,1.28,3.5,3.5,0,0,1-1.74.45Zm-.23-1.78a1.58,1.58,0,0,0,1.26-.49,1.78,1.78,0,0,0,.55-1.3v-2.05a1.68,1.68,0,0,0-.55-1.27,1.81,1.81,0,0,0-1.27-.56,1.84,1.84,0,0,0-1.85,1.79v2a1.79,1.79,0,0,0,.56,1.31A1.76,1.76,0,0,0,464.24,367.65Z"/><path id="path7265" class="cls-4" d="M475.25,359.51a.57.57,0,0,1-.24-.08.29.29,0,0,1-.08-.24V357.5a.57.57,0,0,1,.08-.24.29.29,0,0,1,.24-.08l1.06,0a.57.57,0,0,1,.24.08c.08,0,.08.16.08.24v1.69a.57.57,0,0,1-.08.24.29.29,0,0,1-.24.08Zm.36,9.88a1,1,0,0,1-.56-.21.74.74,0,0,1-.2-.55v-6.32l-1.26,0a.57.57,0,0,1-.24-.08.29.29,0,0,1-.08-.24v-1.1a.57.57,0,0,1,.08-.24c0-.07.16-.07.24-.07l2.33,0a.77.77,0,0,1,.55.24.73.73,0,0,1,.24.56v6.31l1.27,0a.57.57,0,0,1,.24.08.29.29,0,0,1,.08.24v1.11a.53.53,0,0,1-.08.23.29.29,0,0,1-.24.08l-2.37-.07Z"/><path id="path7267" class="cls-4" d="M480.27,369.45a.58.58,0,0,1-.23-.08.29.29,0,0,1-.08-.24V361a.53.53,0,0,1,.08-.23.29.29,0,0,1,.24-.08l1.19,0a.57.57,0,0,1,.24.08.29.29,0,0,1,.08.24v.71a2.68,2.68,0,0,1,1-.9,2.52,2.52,0,0,1,1.3-.34,3.17,3.17,0,0,1,1.59.46,3.09,3.09,0,0,1,1.11,1.16,3.32,3.32,0,0,1,.4,1.66v5.5a.57.57,0,0,1-.08.24.32.32,0,0,1-.24.07H485.7a.78.78,0,0,1-.24-.09.31.31,0,0,1-.07-.23V364a1.85,1.85,0,0,0-.43-1.27,1.48,1.48,0,0,0-1.19-.45,1.89,1.89,0,0,0-1.47.57,2.34,2.34,0,0,0-.51,1.61v4.75a.58.58,0,0,1-.08.23.29.29,0,0,1-.24.08l-1.19,0Z"/><path id="path7269" class="cls-4" d="M492.85,369.63a2.79,2.79,0,0,1-2-.78,2.72,2.72,0,0,1-.75-2v-4.43l-1.07,0a.57.57,0,0,1-.24-.08.29.29,0,0,1-.08-.24v-1.07a.58.58,0,0,1,.08-.23.29.29,0,0,1,.24-.08l1.07,0V359.1a.58.58,0,0,1,.08-.23.29.29,0,0,1,.24-.08l1.19,0a.57.57,0,0,1,.24.08.29.29,0,0,1,.08.24v1.66l2.62,0a.57.57,0,0,1,.24.08.29.29,0,0,1,.08.24v1.11a.57.57,0,0,1-.08.24.28.28,0,0,1-.24.07l-2.62,0v4.35a1,1,0,0,0,.28.76,1,1,0,0,0,.72.28l1.63,0a.58.58,0,0,1,.23.08.29.29,0,0,1,.08.24v1.07a.53.53,0,0,1-.08.23.26.26,0,0,1-.23.08l-1.71,0Z"/><path id="path7271" class="cls-4" d="M500.09,369.73a3.78,3.78,0,0,1-1.88-.51,4.08,4.08,0,0,1-1.35-1.36,3.72,3.72,0,0,1-.48-1.87v-1.66a3.68,3.68,0,0,1,.48-1.86,3.64,3.64,0,0,1,1.35-1.32,3.84,3.84,0,0,1,1.87-.46,3.66,3.66,0,0,1,1.83.5,3.8,3.8,0,0,1,1.36,1.37,3.72,3.72,0,0,1,.48,1.87v1a.67.67,0,0,1-.68.66l-4.82-.06v.08a1.79,1.79,0,0,0,1.84,1.84l2.46,0a.57.57,0,0,1,.24.08.29.29,0,0,1,.08.24v1.11a.53.53,0,0,1-.08.23c0,.08-.16.08-.24.08l-2.46,0Zm1.83-5.33v-.12a1.66,1.66,0,0,0-.56-1.27,1.8,1.8,0,0,0-1.28-.57,1.78,1.78,0,0,0-1.31.53,1.72,1.72,0,0,0-.52,1.26v.16l3.67.05Z"/><path id="path7273" class="cls-4" d="M505.62,369.8a.57.57,0,0,1-.24-.08.29.29,0,0,1-.08-.24v-1.15a.57.57,0,0,1,.08-.24.32.32,0,0,1,.24-.07h1.2v-5.31l-1.36,0a.57.57,0,0,1-.24-.08c-.08,0-.08-.16-.08-.24v-1.11a.49.49,0,0,1,.08-.23.29.29,0,0,1,.24-.08l2.43,0a.66.66,0,0,1,.48.2.68.68,0,0,1,.2.48v.56l.84-.67a4.58,4.58,0,0,1,.8-.5,1.68,1.68,0,0,1,.8-.15h.48a.57.57,0,0,1,.24.08.29.29,0,0,1,.08.24v1.19a.57.57,0,0,1-.08.24c0,.07-.16.07-.24.07h-.4a1.28,1.28,0,0,0-.72.15c-.2.11-.48.31-.92.62l-.84.66v3.89l1.55,0a.57.57,0,0,1,.24.08.29.29,0,0,1,.08.24v1.15a.57.57,0,0,1-.08.24.29.29,0,0,1-.24.08l-4.55-.07Z"/><path id="path7275" class="cls-4" d="M515,369.93a.57.57,0,0,1-.24-.08.29.29,0,0,1-.08-.24v-6.83h-1.23a.48.48,0,0,1-.24-.09.28.28,0,0,1-.08-.23v-1.08a.53.53,0,0,1,.08-.23c0-.08.16-.08.24-.08l1.23,0v-.48a2.52,2.52,0,0,1,.76-1.94,2.79,2.79,0,0,1,2-.73l1.48,0a.57.57,0,0,1,.24.08.29.29,0,0,1,.08.24v1.08a.53.53,0,0,1-.08.23.29.29,0,0,1-.24.08l-1.52,0a.84.84,0,0,0-.64.23.82.82,0,0,0-.2.63v.6l2,0a.57.57,0,0,1,.24.08c.08,0,.08.16.08.24v1.07a.57.57,0,0,1-.08.24.32.32,0,0,1-.24.07l-2,0v6.83a.53.53,0,0,1-.08.23.29.29,0,0,1-.24.08l-1.24,0Z"/><path id="path7277" class="cls-4" d="M523.05,370.24a3.08,3.08,0,0,1-2.12-.74,2.45,2.45,0,0,1-.8-1.92,2.29,2.29,0,0,1,.76-1.78,3.51,3.51,0,0,1,2.12-.88c.24,0,.44,0,.64-.07a10.68,10.68,0,0,0,1.32-.19c.41-.07.57-.27.57-.62a1.08,1.08,0,0,0-.49-.92,2,2,0,0,0-1.2-.38,2,2,0,0,0-1.84.89.41.41,0,0,1-.28.2.31.31,0,0,1-.2-.08l-.88-.61a.4.4,0,0,1-.16-.28.3.3,0,0,1,0-.16,3.26,3.26,0,0,1,1.36-1.29,4.21,4.21,0,0,1,2-.46,3.93,3.93,0,0,1,1.81.42,3,3,0,0,1,1.2,1.13,3.24,3.24,0,0,1,.44,1.64v5.65a.58.58,0,0,1-.08.23.29.29,0,0,1-.24.08l-1.08,0a.57.57,0,0,1-.24-.08.29.29,0,0,1-.08-.24v-.59a3.4,3.4,0,0,1-2.57,1.07Zm.12-1.66a2.4,2.4,0,0,0,1.16-.31,2.79,2.79,0,0,0,.89-.78,1.88,1.88,0,0,0,.36-1.07v-.32l-1.17.15c-.64.07-1,.1-1.24.14-.84.15-1.28.5-1.28,1.09a1,1,0,0,0,.36.8,1.27,1.27,0,0,0,.92.3Z"/><path id="path7279" class="cls-4" d="M533.08,370.38a3.88,3.88,0,0,1-1.88-.5,4.08,4.08,0,0,1-1.37-1.37,3.39,3.39,0,0,1-.48-1.88v-1.87a3.68,3.68,0,0,1,.48-1.86,3.64,3.64,0,0,1,1.36-1.34,3.8,3.8,0,0,1,1.89-.45,3.7,3.7,0,0,1,1.49.34,4.08,4.08,0,0,1,1.25.89.35.35,0,0,1,.12.24.38.38,0,0,1-.16.31l-.69.67a.31.31,0,0,1-.52,0,2.12,2.12,0,0,0-1.53-.62,1.8,1.8,0,0,0-1.32.54,1.69,1.69,0,0,0-.53,1.27v2a1.86,1.86,0,0,0,.53,1.32,1.83,1.83,0,0,0,1.32.53,2,2,0,0,0,1.53-.58.43.43,0,0,1,.28-.15.29.29,0,0,1,.24.12l.69.69a.49.49,0,0,1,.16.32.35.35,0,0,1-.12.24,4,4,0,0,1-1.25.89,4.36,4.36,0,0,1-1.49.26Z"/><path id="path7281" class="cls-4" d="M541.09,370.29a3.81,3.81,0,0,1-1.89-.5,4.08,4.08,0,0,1-1.37-1.37,3.78,3.78,0,0,1-.48-1.88v-1.67a3.62,3.62,0,0,1,1.85-3.21,3.81,3.81,0,0,1,1.9-.45,3.76,3.76,0,0,1,1.85.5A3.7,3.7,0,0,1,544.8,365v1a.63.63,0,0,1-.21.48.7.7,0,0,1-.48.19l-4.91-.07v.08a1.78,1.78,0,0,0,.52,1.32,1.82,1.82,0,0,0,1.33.54l2.5,0a.78.78,0,0,1,.24.09.29.29,0,0,1,.08.24V370a.57.57,0,0,1-.08.24c0,.08-.16.08-.24.08l-2.46,0Zm1.89-5.35v-.12a1.66,1.66,0,0,0-.56-1.28,1.81,1.81,0,0,0-2.62,0,1.73,1.73,0,0,0-.52,1.27v.16l3.7.05Z"/><path id="path7283" class="cls-4" d="M549.48,370.61a4.92,4.92,0,0,1-1.66-.3,5.54,5.54,0,0,1-1.41-.74.55.55,0,0,1-.12-.16v-.2c.08-.16.24-.48.52-1a.38.38,0,0,1,.33-.19.31.31,0,0,1,.2.08,3.78,3.78,0,0,0,1,.57,3,3,0,0,0,1.05.17,1.83,1.83,0,0,0,1-.22.78.78,0,0,0,.36-.67.63.63,0,0,0-.28-.57,7.4,7.4,0,0,0-1.13-.53l-.57-.21a6.38,6.38,0,0,1-1.17-.57,3,3,0,0,1-.85-.85,2.68,2.68,0,0,1-.32-1.32,2.47,2.47,0,0,1,.8-1.94,3.2,3.2,0,0,1,2.22-.69,4.22,4.22,0,0,1,1.58.3,4.1,4.1,0,0,1,1.37.73.21.21,0,0,1,.08.16.18.18,0,0,1,0,.2,8.93,8.93,0,0,1-.48,1,.3.3,0,0,1-.28.16.36.36,0,0,1-.21-.08,3.8,3.8,0,0,0-2-.75,1.32,1.32,0,0,0-.85.23.74.74,0,0,0-.28.63.85.85,0,0,0,.36.69,5.91,5.91,0,0,0,1.29.65c.61.25,1,.46,1.37.62a2.64,2.64,0,0,1,.93.77,2.08,2.08,0,0,1,.45,1.36,2.34,2.34,0,0,1-.45,1.43,2.65,2.65,0,0,1-1.17.94,4.56,4.56,0,0,1-1.73.3Z"/><path id="path7285" class="cls-4" d="M554.37,372.31a.37.37,0,0,1-.29-.12.24.24,0,0,1,0-.28l.89-3a.4.4,0,0,1,.16-.2.26.26,0,0,1,.24-.07l1.58,0a.39.39,0,0,1,.25.08.22.22,0,0,1,.08.2.3.3,0,0,1,0,.2l-1.82,3.21Z"/><path id="path7287" class="cls-4" d="M403,388.11a.57.57,0,0,1-.24-.08c-.07,0-.07-.16-.07-.24V376.73a.58.58,0,0,1,.08-.23.26.26,0,0,1,.23-.07h1a.49.49,0,0,1,.23.08.29.29,0,0,1,.08.24v.7a2.62,2.62,0,0,1,1-.88,2.83,2.83,0,0,1,1.24-.3,3.25,3.25,0,0,1,1.67.5,3.33,3.33,0,0,1,1.24,1.31,3.53,3.53,0,0,1,.46,1.76V382a3.48,3.48,0,0,1-.47,1.75A3.29,3.29,0,0,1,408.1,385a3.21,3.21,0,0,1-1.71.44,2.71,2.71,0,0,1-1.08-.25,2.66,2.66,0,0,1-.93-.72v3.32a.49.49,0,0,1-.08.23.27.27,0,0,1-.23.08l-1.12,0Zm3.29-4.44a1.54,1.54,0,0,0,1.24-.49,1.74,1.74,0,0,0,.54-1.28v-2a1.64,1.64,0,0,0-.54-1.26,1.77,1.77,0,0,0-1.24-.57,1.7,1.7,0,0,0-1.28.53,1.67,1.67,0,0,0-.54,1.24v2a1.81,1.81,0,0,0,.54,1.3A1.91,1.91,0,0,0,406.24,383.67Z"/><path id="path7289" class="cls-4" d="M413.1,375.56a.58.58,0,0,1-.23-.08.29.29,0,0,1-.08-.24v-1.68a.53.53,0,0,1,.08-.23.27.27,0,0,1,.23-.08l1,0a.49.49,0,0,1,.23.08.29.29,0,0,1,.08.24v1.68a.62.62,0,0,1-.07.23.29.29,0,0,1-.24.08Zm.39,9.75a.92.92,0,0,1-.54-.2.77.77,0,0,1-.19-.55V378.3l-1.24,0a.44.44,0,0,1-.23-.09.26.26,0,0,1-.08-.23v-1.1a.58.58,0,0,1,.08-.23.24.24,0,0,1,.23-.07l2.29,0a.77.77,0,0,1,.55.24.75.75,0,0,1,.23.55v6.27l1.25,0a.58.58,0,0,1,.23.08c.08,0,.08.16.08.23v1.1a.49.49,0,0,1-.08.23.28.28,0,0,1-.23.08l-2.34-.08Z"/><path id="path7291" class="cls-4" d="M420.88,385.43a3.72,3.72,0,0,1-1.83-.5,4.06,4.06,0,0,1-1.32-1.35,3.74,3.74,0,0,1-.47-1.85v-1.64a3.7,3.7,0,0,1,.47-1.84,3.61,3.61,0,0,1,1.32-1.31,3.67,3.67,0,0,1,1.83-.44,3.54,3.54,0,0,1,1.79.5,3.6,3.6,0,0,1,1.79,3.2v1a.62.62,0,0,1-.2.46.6.6,0,0,1-.47.19l-4.75-.07v.08a1.78,1.78,0,0,0,.51,1.3,1.75,1.75,0,0,0,1.28.53l2.42,0a.53.53,0,0,1,.23.08c.08,0,.08.16.08.23v1.1a.49.49,0,0,1-.08.23.27.27,0,0,1-.23.08l-2.38,0Zm1.79-5.22v-.16a1.65,1.65,0,0,0-.54-1.26,1.73,1.73,0,0,0-2.53,0,1.71,1.71,0,0,0-.51,1.25v.15Z"/><path id="path7293" class="cls-4" d="M429.85,385.77a3.73,3.73,0,0,1-1.84-.5,4.06,4.06,0,0,1-1.32-1.35,3.8,3.8,0,0,1-.47-1.85v-1.84a3.58,3.58,0,0,1,.47-1.84,3.53,3.53,0,0,1,1.32-1.31,3.59,3.59,0,0,1,1.84-.45,3.67,3.67,0,0,1,1.44.34,3.77,3.77,0,0,1,1.21.88.35.35,0,0,1,.12.24.4.4,0,0,1-.16.31l-.66.66a.37.37,0,0,1-.24.11.34.34,0,0,1-.27-.16,2.05,2.05,0,0,0-1.48-.61,1.72,1.72,0,0,0-1.29.53,1.7,1.7,0,0,0-.51,1.25v2a1.8,1.8,0,0,0,.51,1.31,1.76,1.76,0,0,0,1.29.53,2,2,0,0,0,1.48-.57.43.43,0,0,1,.28-.15c.11,0,.15,0,.23.12l.66.68a.49.49,0,0,1,.16.32.35.35,0,0,1-.12.23,3.77,3.77,0,0,1-1.21.88,3.42,3.42,0,0,1-1.44.25Z"/><path id="path7295" class="cls-4" d="M437.66,385.7a3.65,3.65,0,0,1-1.84-.5,4.19,4.19,0,0,1-1.33-1.35A3.79,3.79,0,0,1,434,382v-1.65a3.68,3.68,0,0,1,.47-1.84,3.49,3.49,0,0,1,1.33-1.31,3.66,3.66,0,0,1,5,1.41,3.74,3.74,0,0,1,.47,1.85v1a.67.67,0,0,1-.19.47.69.69,0,0,1-.47.19l-4.78-.08v.08a1.79,1.79,0,0,0,1.8,1.84l2.43,0a.65.65,0,0,1,.23.09c.08,0,.08.16.08.23v1.1a.57.57,0,0,1-.08.24.26.26,0,0,1-.23.07l-2.39,0Zm1.8-5.23v-.16a1.66,1.66,0,0,0-.55-1.26,1.78,1.78,0,0,0-1.25-.57,1.78,1.78,0,0,0-1.8,1.78v.15Z"/><path id="path7297" class="cls-4" d="M451,386.12a2.88,2.88,0,0,1-1.26-.3,2.68,2.68,0,0,1-1-.92v.67a.49.49,0,0,1-.08.23.28.28,0,0,1-.23.08l-1,0a.58.58,0,0,1-.23-.08c-.08,0-.08-.16-.08-.24V374.42a.57.57,0,0,1,.08-.24.26.26,0,0,1,.23-.07h1.18a.73.73,0,0,1,.23.09.27.27,0,0,1,.08.23v3.42a2.5,2.5,0,0,1,.91-.69,2.92,2.92,0,0,1,1.13-.26,3.44,3.44,0,0,1,1.73.5,3.72,3.72,0,0,1,1.26,1.32,3.59,3.59,0,0,1,.47,1.78v2.12a3.39,3.39,0,0,1-.47,1.76,3.17,3.17,0,0,1-1.26,1.28,3.28,3.28,0,0,1-1.72.45Zm-.24-1.74a1.58,1.58,0,0,0,1.26-.49,1.78,1.78,0,0,0,.55-1.29v-2a1.67,1.67,0,0,0-.55-1.27,1.82,1.82,0,0,0-1.26-.57,1.85,1.85,0,0,0-1.85,1.78v2a1.81,1.81,0,0,0,.54,1.31A2.15,2.15,0,0,0,450.75,384.38Z"/><path id="path7299" class="cls-4" d="M458.1,389a.28.28,0,0,1-.27-.16.25.25,0,0,1,0-.28l.78-2.27-3-8.63a.3.3,0,0,1,0-.16c0-.12,0-.2.12-.23a.36.36,0,0,1,.27-.12l1.07,0a.57.57,0,0,1,.27.08,1.06,1.06,0,0,1,.2.24l2.09,6.18,2.08-6.12a.37.37,0,0,1,.16-.23.36.36,0,0,1,.27-.08l1,0a.33.33,0,0,1,.27.12.35.35,0,0,1,.12.24.3.3,0,0,1,0,.16l-3.85,10.89a.39.39,0,0,1-.2.23.37.37,0,0,1-.27.08l-.95,0Z"/><path id="path7301" class="cls-4" d="M469.33,389.22a.59.59,0,0,1-.24-.09.31.31,0,0,1-.07-.23V377.73a.58.58,0,0,1,.08-.23.29.29,0,0,1,.24-.08l1,0a.57.57,0,0,1,.24.08.29.29,0,0,1,.08.24v.71a2.62,2.62,0,0,1,1-.89,2.78,2.78,0,0,1,1.26-.3,3.33,3.33,0,0,1,1.7.5,3.43,3.43,0,0,1,1.27,1.32,3.62,3.62,0,0,1,.47,1.78V383a3.55,3.55,0,0,1-.47,1.77,3.32,3.32,0,0,1-1.27,1.28,3.28,3.28,0,0,1-1.73.44,2.61,2.61,0,0,1-1.11-.25,2.88,2.88,0,0,1-.95-.73v3.36a.58.58,0,0,1-.08.23.27.27,0,0,1-.23.08l-1.15,0Zm3.36-4.49a1.58,1.58,0,0,0,1.26-.49,1.74,1.74,0,0,0,.55-1.29V380.9a1.67,1.67,0,0,0-.55-1.28,1.82,1.82,0,0,0-1.27-.57,1.91,1.91,0,0,0-1.3.53,1.78,1.78,0,0,0-.55,1.26v2.05a1.84,1.84,0,0,0,.55,1.31A1.93,1.93,0,0,0,472.69,384.73Z"/><path id="path7303" class="cls-4" d="M479.68,376.55a.49.49,0,0,1-.23-.08.29.29,0,0,1-.08-.24v-1.7a.68.68,0,0,1,.07-.23.29.29,0,0,1,.24-.08l1.07,0a.57.57,0,0,1,.24.08.29.29,0,0,1,.08.24v1.7a.53.53,0,0,1-.08.23.29.29,0,0,1-.24.08Zm.4,9.84a.93.93,0,0,1-.55-.2.75.75,0,0,1-.2-.56v-6.32l-1.27,0a.57.57,0,0,1-.24-.08.29.29,0,0,1-.08-.24v-1.1a.57.57,0,0,1,.08-.24.29.29,0,0,1,.24-.08l2.34,0a.76.76,0,0,1,.55.25.71.71,0,0,1,.24.55v6.32l1.27,0a.59.59,0,0,1,.24.09c.07,0,.07.16.07.23v1.11a.57.57,0,0,1-.08.24.32.32,0,0,1-.24.07l-2.38-.08Z"/><path id="path7305" class="cls-4" d="M487.61,386.52a3.71,3.71,0,0,1-1.86-.51,4.08,4.08,0,0,1-1.35-1.36,3.75,3.75,0,0,1-.48-1.87v-1.66a3.65,3.65,0,0,1,.48-1.85,3.43,3.43,0,0,1,1.35-1.32,3.8,3.8,0,0,1,3.68.05,3.65,3.65,0,0,1,1.83,3.23v1a.68.68,0,0,1-.67.67l-4.84-.08v.08a1.8,1.8,0,0,0,.51,1.31,1.83,1.83,0,0,0,1.31.54l2.46,0a.57.57,0,0,1,.24.08.29.29,0,0,1,.08.24v1.1a.57.57,0,0,1-.08.24.29.29,0,0,1-.24.08l-2.42,0Zm1.83-5.27v-.16a1.68,1.68,0,0,0-.56-1.28,1.79,1.79,0,0,0-2.58,0,1.7,1.7,0,0,0-.51,1.26v.16Z"/><path id="path7307" class="cls-4" d="M496.79,386.86a3.84,3.84,0,0,1-1.87-.5,4.11,4.11,0,0,1-1.35-1.37,3.72,3.72,0,0,1-.48-1.87v-1.86a3.65,3.65,0,0,1,.48-1.85,3.52,3.52,0,0,1,1.35-1.33,3.77,3.77,0,0,1,1.87-.44,3.64,3.64,0,0,1,1.47.34,3.73,3.73,0,0,1,1.23.89.35.35,0,0,1,.12.24.4.4,0,0,1-.16.31l-.67.66a.31.31,0,0,1-.52,0,2.09,2.09,0,0,0-1.51-.62,1.79,1.79,0,0,0-1.32.53,1.74,1.74,0,0,0-.51,1.26v2a1.79,1.79,0,0,0,1.83,1.85,2,2,0,0,0,1.51-.57.39.39,0,0,1,.28-.15.29.29,0,0,1,.24.12l.67.68a.49.49,0,0,1,.16.32.35.35,0,0,1-.12.24,3.77,3.77,0,0,1-1.23.89,3.67,3.67,0,0,1-1.47.25Z"/><path id="path7309" class="cls-4" d="M504.71,386.79a3.87,3.87,0,0,1-1.87-.5,4.14,4.14,0,0,1-1.36-1.37,3.85,3.85,0,0,1-.47-1.87v-1.66a3.52,3.52,0,0,1,1.83-3.19,3.77,3.77,0,0,1,1.87-.44,3.56,3.56,0,0,1,1.83.5,3.8,3.8,0,0,1,1.36,1.37,3.75,3.75,0,0,1,.48,1.87v1a.67.67,0,0,1-.68.66l-4.86-.07v.08a1.81,1.81,0,0,0,1.83,1.85l2.47,0a.57.57,0,0,1,.24.08c.08,0,.08.16.08.24v1.11a.57.57,0,0,1-.08.24.24.24,0,0,1-.23.07l-2.44,0Zm1.84-5.28v-.16a1.69,1.69,0,0,0-.56-1.27,1.81,1.81,0,0,0-1.28-.58,1.78,1.78,0,0,0-1.31.54,1.69,1.69,0,0,0-.52,1.26v.15l3.67.06Z"/></g><path id="path4165" class="cls-16" d="M560,245.12l7.86,11.57,7.88-11.63Z"/><path class="cls-4" d="M567.81,257.67a1,1,0,0,1-.8-.43l-7.87-11.57a1,1,0,0,1-.06-1,1,1,0,0,1,.86-.52l15.75-.06a1,1,0,0,1,.86.51,1,1,0,0,1,0,1l-7.88,11.63a1,1,0,0,1-.81.43Zm-6-11.58,6,8.86,6-8.9Z"/><path class="cls-4" d="M560.11,257.48a1,1,0,0,1,0-2l15.58,0h0a1,1,0,0,1,0,1.95l-15.59,0Z"/><path id="path4173" class="cls-16" d="M340.34,257.2l7.38-11.26,7.41,11.23Z"/><path class="cls-4" d="M340.34,258.17a1,1,0,0,1-.86-.51,1,1,0,0,1,0-1l7.39-11.25a1,1,0,0,1,.81-.44h0a1,1,0,0,1,.82.44l7.4,11.22a1,1,0,0,1-.81,1.51l-14.79,0Zm7.39-10.45-5.58,8.5,11.17,0Z"/><path class="cls-4" d="M340.49,247.14a1,1,0,0,1,0-1.95l14.64-.06h0a1,1,0,0,1,0,2l-14.64,0Z"/></g><g id="SMASHING_SCHRIFTZUG" data-name="SMASHING SCHRIFTZUG"><path id="SMASHING" class="cls-4" d="M475.86,439.32a3.2,3.2,0,0,1,3.24-3.21,3.34,3.34,0,0,1,2.91,1.82l-1.2.37a2.05,2.05,0,0,0-2.82-.6,2,2,0,0,0-.54,2.79,2.05,2.05,0,0,0,2.82.6,2.53,2.53,0,0,0,.42-.38l-.72.11-.87-.89,1.86-.26,1.86-.25-.29,1.84-.3,1.85-.91-.92.09-.51a3.25,3.25,0,0,1-4.62-.1,3.3,3.3,0,0,1-.93-2.26Zm-37.43.11a2.06,2.06,0,0,0,.2,1,2.79,2.79,0,0,0,.6.73,3.24,3.24,0,0,0,.85.43,3.56,3.56,0,0,0,1,.17,3.47,3.47,0,0,0,1.12-.12,2.87,2.87,0,0,0,.83-.39,1.74,1.74,0,0,0,.5-.64,1.94,1.94,0,0,0,.18-.8,1.53,1.53,0,0,0-.24-.87,1.71,1.71,0,0,0-.53-.54,2.4,2.4,0,0,0-.62-.31,3,3,0,0,0-.47-.13l-.95-.26c-.21-.06-.38-.13-.56-.19a.48.48,0,0,1-.27-.21.37.37,0,0,1-.06-.3.55.55,0,0,1,.09-.32.7.7,0,0,1,.21-.21,1.25,1.25,0,0,1,.29-.11,1.29,1.29,0,0,1,.33,0,1.87,1.87,0,0,1,.47,0,1.51,1.51,0,0,1,.39.15.71.71,0,0,1,.26.31,1.26,1.26,0,0,1,.12.44l1.33,0a2,2,0,0,0-.2-.92,1.53,1.53,0,0,0-.57-.64,2.24,2.24,0,0,0-.8-.37,3.62,3.62,0,0,0-.94-.14,3.16,3.16,0,0,0-.86.1,2.12,2.12,0,0,0-.77.34,1.83,1.83,0,0,0-.56.58,1.63,1.63,0,0,0-.21.83,2.08,2.08,0,0,0,.15.74,1.84,1.84,0,0,0,.45.51,1.93,1.93,0,0,0,.59.34,5.44,5.44,0,0,0,.68.23l.68.19.59.19a1.11,1.11,0,0,1,.41.28.59.59,0,0,1,.18.42.54.54,0,0,1-.12.38,1.63,1.63,0,0,1-.29.23,2.85,2.85,0,0,1-.39.11,2.42,2.42,0,0,1-.38,0,1.88,1.88,0,0,1-.53-.07,1.45,1.45,0,0,1-.45-.22.79.79,0,0,1-.29-.36,1.18,1.18,0,0,1-.12-.54Zm15.38-2.32.8,2.33-1.66,0Zm-3.09,4.62v-6.24l-1.93,0-1.42,4.3-1.49-4.36-1.92,0v6.28l1.3,0,0-4.42,1.54,4.46,1.07,0,1.57-4.44v4.48l2.67.06.51-1.38,2.35.05.47,1.41,1.43,0-2.38-6.35-1.43,0Zm5.7-1.89a2.38,2.38,0,0,0,.21,1,2.79,2.79,0,0,0,.6.73,3.68,3.68,0,0,0,.86.44,4.54,4.54,0,0,0,1,.17,3.6,3.6,0,0,0,1.14-.12,3.52,3.52,0,0,0,.83-.4,1.82,1.82,0,0,0,.51-.65,1.89,1.89,0,0,0,.18-.79,1.53,1.53,0,0,0-.24-.87,1.89,1.89,0,0,0-.54-.55,2.46,2.46,0,0,0-.63-.31,2.52,2.52,0,0,0-.47-.13l-1-.26a3.43,3.43,0,0,1-.56-.22.46.46,0,0,1-.27-.22.35.35,0,0,1-.06-.29.6.6,0,0,1,.09-.33.67.67,0,0,1,.21-.2.72.72,0,0,1,.3-.11,1.27,1.27,0,0,1,.32,0,1.59,1.59,0,0,1,.48.07,2,2,0,0,1,.39.16.66.66,0,0,1,.27.3,1,1,0,0,1,.12.45l1.34,0a2,2,0,0,0-.21-.93,1.45,1.45,0,0,0-.57-.63,2.26,2.26,0,0,0-.8-.38,2.78,2.78,0,0,0-1-.11,3.2,3.2,0,0,0-.86.1,2,2,0,0,0-.77.34,1.7,1.7,0,0,0-.54.59,1.59,1.59,0,0,0-.21.82,2.09,2.09,0,0,0,.15.75,2,2,0,0,0,.45.52,2.66,2.66,0,0,0,.59.34c.24.09.45.15.69.22l.68.19.6.2a1.26,1.26,0,0,1,.42.27.58.58,0,0,1,.17.42.55.55,0,0,1-.11.39,1.4,1.4,0,0,1-.3.23,2.85,2.85,0,0,1-.39.11,2.55,2.55,0,0,1-.39,0,4.81,4.81,0,0,1-.53-.07,1.45,1.45,0,0,1-.45-.22.88.88,0,0,1-.3-.36,1.2,1.2,0,0,1-.12-.54Zm5.57,2.21,1.41,0v-2.71l2.56.06v2.74l1.41,0v-6.32l-1.4,0v2.42l-2.57-.06V435.8l-1.4,0Zm6,.13,1.41,0V435.9l-1.41,0Zm2,.05,1.31,0,0-4.23,2.64,4.29,1.4,0V436l-1.32,0v4.27l-2.67-4.33-1.38,0Z"/></g><g id="S"><g id="Kasten"><path class="cls-4" d="M428.69,442.53a7.93,7.93,0,0,0-2.06-1.18,8,8,0,0,1-1.58-.89,3.72,3.72,0,0,1-1.77-3.11,3.12,3.12,0,0,1,.65-2l.26-.26-2.52.53a1.35,1.35,0,0,0-1,1.6l2.09,9.09a1.4,1.4,0,0,0,1.61,1.07l1-.21-.09,0a10.89,10.89,0,0,1-2-.91l1.09-2.4a4.91,4.91,0,0,0,3.06,1.17c1.18,0,1.77-.37,1.77-1.23A1.63,1.63,0,0,0,428.69,442.53Z"/><path class="cls-4" d="M434.38,443.87l-2.09-9.1a1.41,1.41,0,0,0-1.62-1.07l-1.51.32.53.1a7.71,7.71,0,0,1,1.95.75l-.89,2.35a4.19,4.19,0,0,0-2.76-.92c-1.06,0-1.59.38-1.59,1.24a1.18,1.18,0,0,0,.53.9,12.65,12.65,0,0,0,2.23,1.14,6.58,6.58,0,0,1,1.89,1.08,5.57,5.57,0,0,1,.59.6,3.9,3.9,0,0,1,.77,2.33,3.43,3.43,0,0,1-.74,2.23l1.71-.34a1.3,1.3,0,0,0,1-1.61Z"/></g></g><g id="Text_MAGAZINE" data-name="Text MAGAZINE"><path class="cls-4" d="M439.29,443.63h.5L441,446.9l1.24-3.2h.51v3.71h-.36v-3.2h0l-1.24,3.17h-.33l-1.24-3.23h0v3.2h-.35v-3.7Z"/><path class="cls-4" d="M445.59,443.78H446l1.46,3.74H447l-.44-1.17-1.66,0-.45,1.15h-.35Zm-.53,2.24,1.42,0-.71-1.91Z"/><path class="cls-4" d="M451.88,447.64h-.24l-.06-.68h0a1.29,1.29,0,0,1-1.24.71,1.79,1.79,0,0,1-1.73-2,1.69,1.69,0,0,1,1.72-1.89,1.46,1.46,0,0,1,1.52,1.25h-.36a1.17,1.17,0,0,0-1.16-1c-.95,0-1.36.8-1.36,1.61a1.49,1.49,0,0,0,1.37,1.66,1.17,1.17,0,0,0,1.24-1.34l-1.25,0v-.3l1.55,0Z"/><path class="cls-4" d="M454.61,444H455l1.43,3.74h-.36l-.45-1.17-1.66,0-.45,1.14h-.35Zm-.53,2.24,1.42,0-.71-1.92Z"/><path class="cls-4" d="M457.62,444.06l2.62.06v.3l-2.41,3,2.44.06v.3l-2.83-.07v-.3l2.41-3-2.23-.06Z"/><path class="cls-4" d="M461.79,444.15h.35v3.72h-.36Z"/><path class="cls-4" d="M463.9,444.2h.39l2.12,3.18h0v-3.13h.36V448h-.39l-2.12-3.2h0v3.15h-.35Z"/><path class="cls-4" d="M468.56,444.31l2.54.06v.3l-2.18-.05V446l2,.05v.29l-2,0v1.46l2.22,0v.3l-2.55-.06v-3.7Z"/></g></g></g></svg>